# Blender v3.5.1 OBJ File: 'golf9.blend'
# www.blender.org
o Cube.002_Cube.001
v -1.600001 0.300000 -0.500000
v -21.599989 0.300000 -8.491487
v 1.599999 0.300000 -0.500000
v -18.399988 0.300000 -8.491484
v -15.584948 0.300000 1.555760
v -14.278337 0.300000 1.544083
v -13.095990 0.300000 1.302462
v -11.940870 0.300000 0.874389
v -10.840615 0.300000 0.220181
v -9.878076 0.300000 -0.687974
v -9.140871 0.300000 -1.792686
v -8.677161 0.300000 -2.999061
v -8.466053 0.300000 -4.174810
v -8.386829 0.300000 -5.182738
v -8.264863 0.300000 -5.898416
v -8.033685 0.300000 -6.565780
v -7.725201 0.300000 -7.151659
v -7.326797 0.300000 -7.615737
v -6.842788 0.300000 -7.962583
v -6.267987 0.300000 -8.205179
v -5.602747 0.300000 -8.343964
v -4.903322 0.300000 -8.388362
v -4.319947 0.300000 -8.292619
v -3.720165 0.300000 -8.051989
v -3.140208 0.300000 -7.687145
v -2.617618 0.300000 -7.218133
v -2.180282 0.300000 -6.672347
v -1.852229 0.300000 -6.082984
v -1.660949 0.300000 -5.483568
v -1.599040 0.300000 -4.783268
v -1.600001 0.300000 -3.870968
v -1.600001 0.300000 -2.903227
v -1.600001 0.300000 -1.935484
v -1.600001 0.300000 -0.967741
v -1.998800 0.300000 -4.769406
v -2.053074 0.300000 -5.404584
v -2.219188 0.300000 -5.923796
v -2.512351 0.300000 -6.449345
v -2.908012 0.300000 -6.943050
v -3.381490 0.300000 -7.368110
v -3.901935 0.300000 -7.695676
v -4.427492 0.300000 -7.907348
v -4.918548 0.300000 -7.988652
v -5.551763 0.300000 -7.947227
v -6.147628 0.300000 -7.823717
v -6.644758 0.300000 -7.615042
v -7.054587 0.300000 -7.322646
v -7.395358 0.300000 -6.925376
v -7.667022 0.300000 -6.405911
v -7.877141 0.300000 -5.800071
v -7.988735 0.300000 -5.143744
v 1.599999 0.300000 -0.967742
v 1.599999 0.300000 -1.935485
v 1.599999 0.300000 -2.903225
v 1.599999 0.300000 -3.870968
v 1.599038 0.300000 -4.894152
v 1.476047 0.300000 -6.115430
v 1.083446 0.300000 -7.356490
v 0.476273 0.300000 -8.456364
v -0.294458 0.300000 -9.418799
v -1.209952 0.300000 -10.239420
v -2.265985 0.300000 -10.902492
v -3.459576 0.300000 -11.374787
v -4.781508 0.300000 -11.586042
v -6.010624 0.300000 -11.517862
v -7.230856 0.300000 -11.256882
v -8.427010 0.300000 -10.742914
v -9.504466 0.300000 -9.960467
v -10.363946 0.300000 -8.961914
v -10.966991 0.300000 -7.844729
v -11.366639 0.300000 -6.685172
v -11.571588 0.300000 -5.494694
v -11.641165 0.300000 -4.573136
v -11.761689 0.300000 -3.850934
v -11.985293 0.300000 -3.258721
v -12.315701 0.300000 -2.761132
v -12.754148 0.300000 -2.344656
v -13.314881 0.300000 -2.015611
v -13.973047 0.300000 -1.775000
v -14.684388 0.300000 -1.630052
v -15.305770 0.300000 -1.632039
v -15.270875 0.300000 -2.030514
v -14.735146 0.300000 -2.026818
v -14.082680 0.300000 -2.159682
v -13.486633 0.300000 -2.376860
v -12.993339 0.300000 -2.665260
v -12.620404 0.300000 -3.020277
v -12.340846 0.300000 -3.441976
v -12.147255 0.300000 -3.957418
v -12.038054 0.300000 -4.622927
v -16.049784 0.300000 -1.732375
v -16.673319 0.300000 -1.948628
v -17.194359 0.300000 -2.279525
v -17.628382 0.300000 -2.723717
v -17.975122 0.300000 -3.291989
v -18.223824 0.300000 -3.969261
v -18.372372 0.300000 -4.702164
v -18.400055 0.300000 -5.513556
v -18.399994 0.300000 -6.497339
v -18.399990 0.300000 -7.494409
v -21.599989 0.300000 -7.494427
v -21.599995 0.300000 -6.497363
v -21.599945 0.300000 -5.487013
v -21.548012 0.300000 -4.308084
v -21.300522 0.300000 -3.089525
v -20.856478 0.300000 -1.899945
v -20.164963 0.300000 -0.772881
v -19.212168 0.300000 0.204112
v -18.057936 0.300000 0.936307
v -16.807774 0.300000 1.376556
v -18.000069 0.300000 -5.516879
v -17.975416 0.300000 -4.751429
v -17.839239 0.300000 -4.079233
v -17.614954 0.300000 -3.465998
v -17.311310 0.300000 -2.967575
v -16.942137 0.300000 -2.589981
v -16.500246 0.300000 -2.309245
v -15.955037 0.300000 -2.120992
v -21.599995 0.300000 -9.491474
v -18.399992 0.300000 -9.491501
v -16.049784 0.300000 -1.732376
v -16.049786 0.300000 -1.732376
v -15.305772 0.300000 -1.632039
v -15.305771 0.300000 -1.632039
v -14.684389 0.300000 -1.630052
v -14.684388 0.300000 -1.630052
v -13.314882 0.300000 -2.015611
v -13.314881 0.300000 -2.015611
v -12.754148 0.300000 -2.344656
v -12.315701 0.300000 -2.761132
v -11.985293 0.300000 -3.258722
v -11.761689 0.300000 -3.850934
v -11.761689 0.300000 -3.850935
v -11.641165 0.300000 -4.573136
v -8.264863 0.300000 -5.898416
v -8.033685 0.300000 -6.565780
v -8.033685 0.300000 -6.565780
v -7.725201 0.300000 -7.151658
v -7.725201 0.300000 -7.151658
v -7.326797 0.300000 -7.615737
v -6.842787 0.300000 -7.962583
v -6.842787 0.300000 -7.962583
v -6.267987 0.300000 -8.205180
v -6.267987 0.300000 -8.205179
v -5.602747 0.300000 -8.343964
v -5.602747 0.300000 -8.343964
v -4.903321 0.300000 -8.388362
v -4.903321 0.300000 -8.388362
v -4.319946 0.300000 -8.292619
v -4.319947 0.300000 -8.292619
v -3.720163 0.300000 -8.051989
v -3.720164 0.300000 -8.051989
v -3.140208 0.300000 -7.687144
v -3.140208 0.300000 -7.687145
v -2.617617 0.300000 -7.218133
v -2.617618 0.300000 -7.218133
v -2.180282 0.300000 -6.672347
v -1.852229 0.300000 -6.082984
v -1.852229 0.300000 -6.082984
v -1.660949 0.300000 -5.483567
v -1.660950 0.300000 -5.483568
v -1.599040 0.300000 -4.783267
v -1.599040 0.300000 -4.783268
v -18.400055 0.300000 -5.513560
v -18.400055 0.300000 -5.513557
v -18.372372 0.300000 -4.702168
v -18.372372 0.300000 -4.702165
v -18.223825 0.300000 -3.969265
v -18.223824 0.300000 -3.969262
v -17.975122 0.300000 -3.291991
v -17.975122 0.300000 -3.291990
v -17.628382 0.300000 -2.723719
v -17.628382 0.300000 -2.723718
v -17.194361 0.300000 -2.279527
v -17.194361 0.300000 -2.279526
v -16.673321 0.300000 -1.948629
v -20.200001 0.300000 -8.000000
v -20.196157 0.300000 -8.039018
v -20.196157 0.300000 -7.960982
v -20.166294 0.300000 -7.888886
v -20.111115 0.300000 -7.833706
v -20.141422 0.300000 -7.858579
v -20.076536 0.300000 -7.815224
v -20.184776 0.300000 -7.923463
v -20.039019 0.300000 -7.803843
v -19.923464 0.300000 -7.815224
v -19.960981 0.300000 -7.803843
v -20.000000 0.300000 -7.800000
v -19.858578 0.300000 -7.858579
v -19.815224 0.300000 -7.923463
v -19.833706 0.300000 -7.888886
v -19.888885 0.300000 -7.833706
v -20.189045 0.300000 -8.062468
v -20.184776 0.300000 -8.076536
v -20.141422 0.300000 -8.141421
v -20.166294 0.300000 -8.111115
v -20.076536 0.300000 -8.184776
v -19.960981 0.300000 -8.196157
v -20.000000 0.300000 -8.200000
v -20.039019 0.300000 -8.196157
v -20.111115 0.300000 -8.166294
v -19.888885 0.300000 -8.166294
v -19.833706 0.300000 -8.111115
v -19.858578 0.300000 -8.141421
v -19.799999 0.300000 -8.000000
v -19.803843 0.300000 -7.960982
v -19.808111 0.300000 -8.053087
v -19.803843 0.300000 -8.039018
v -19.815224 0.300000 -8.076536
v -19.923464 0.300000 -8.184776
vt 0.262604 0.179889
vt 0.273465 0.175823
vt 0.273465 0.175823
vt 0.267564 0.199271
vt 0.278915 0.196895
vt 0.278915 0.196895
vt 0.281112 0.214776
vt 0.279388 0.235751
vt 0.267937 0.233920
vt 0.263737 0.251825
vt 0.274728 0.255526
vt 0.274728 0.255526
vt 0.257134 0.267018
vt 0.267186 0.272800
vt 0.256707 0.286855
vt 0.256707 0.286855
vt 0.243521 0.298079
vt 0.243521 0.298079
vt 0.237021 0.288475
vt 0.227243 0.306554
vt 0.222850 0.295822
vt 0.206868 0.312510
vt 0.204068 0.301256
vt 0.200524 0.408288
vt 0.184508 0.425085
vt 0.180342 0.414263
vt 0.161927 0.423215
vt 0.153773 0.442828
vt 0.146123 0.434112
vt 0.161927 0.423215
vt 0.143510 0.454005
vt 0.136504 0.466809
vt 0.125818 0.462304
vt 0.132208 0.481837
vt 0.120813 0.479686
vt 0.119108 0.499313
vt 0.120238 0.519600
vt 0.120238 0.519600
vt 0.119108 0.499313
vt 0.131692 0.517786
vt 0.135723 0.531641
vt 0.125003 0.536063
vt 0.143626 0.546041
vt 0.133995 0.552501
vt 0.154847 0.559895
vt 0.146494 0.567939
vt 0.168714 0.572062
vt 0.161795 0.581368
vt 0.184288 0.581752
vt 0.179012 0.592079
vt 0.200426 0.588382
vt 0.197107 0.599493
vt 0.215944 0.591376
vt 0.234416 0.590752
vt 0.235393 0.602307
vt 0.179927 0.130785
vt 0.157807 0.132710
vt 0.156526 0.121184
vt 0.199746 0.132391
vt 0.179978 0.119188
vt 0.201588 0.120941
vt 0.201588 0.120941
vt 0.233565 0.143761
vt 0.218171 0.136736
vt 0.221940 0.125769
vt 0.253774 0.144759
vt 0.245705 0.153088
vt 0.255308 0.164842
vt 0.265093 0.158619
vt 0.042014 0.134880
vt 0.059784 0.039322
vt 0.070802 0.131437
vt 0.345226 0.589145
vt 0.369708 0.679651
vt 0.356243 0.681261
vt 0.369720 0.177885
vt 0.273465 0.175823
vt 0.360351 0.143302
vt 0.281112 0.214776
vt 0.278915 0.196895
vt 0.373882 0.215538
vt 0.370998 0.250405
vt 0.274728 0.255526
vt 0.362652 0.285130
vt 0.267186 0.272800
vt 0.324779 0.349888
vt 0.295516 0.374912
vt 0.262385 0.392413
vt 0.229266 0.402538
vt 0.227243 0.306554
vt 0.206868 0.312510
vt 0.180342 0.414263
vt 0.180579 0.317685
vt 0.115011 0.343179
vt 0.161927 0.423215
vt 0.146123 0.434112
vt 0.084927 0.364384
vt 0.134136 0.447178
vt 0.059141 0.392562
vt 0.040327 0.426272
vt 0.125818 0.462304
vt 0.029650 0.462474
vt 0.120813 0.479686
vt 0.026338 0.498498
vt 0.120238 0.519600
vt 0.119108 0.499313
vt 0.039240 0.571440
vt 0.028607 0.534114
vt 0.125003 0.536063
vt 0.056945 0.604173
vt 0.133995 0.552500
vt 0.079669 0.632290
vt 0.146494 0.567939
vt 0.106444 0.655819
vt 0.179012 0.592079
vt 0.136802 0.674692
vt 0.197107 0.599493
vt 0.170554 0.688384
vt 0.215021 0.602936
vt 0.207632 0.695413
vt 0.243212 0.694749
vt 0.235393 0.602307
vt 0.272669 0.691255
vt 0.289510 0.595808
vt 0.261652 0.599139
vt 0.317368 0.592476
vt 0.300527 0.687924
vt 0.328385 0.684592
vt 0.088486 0.035889
vt 0.099504 0.128005
vt 0.085198 0.082999
vt 0.073684 0.084376
vt 0.117188 0.032457
vt 0.156526 0.121184
vt 0.128206 0.124573
vt 0.146273 0.028980
vt 0.179978 0.119188
vt 0.180389 0.026417
vt 0.201588 0.120941
vt 0.216319 0.029347
vt 0.221940 0.125769
vt 0.252092 0.038034
vt 0.239493 0.133794
vt 0.318322 0.078124
vt 0.286917 0.054060
vt 0.253774 0.144759
vt 0.343374 0.108830
vt 0.281112 0.214776
vt 0.269515 0.214680
vt 0.248198 0.278976
vt 0.227243 0.306554
vt 0.203017 0.419613
vt 0.167791 0.433219
vt 0.134136 0.447178
vt 0.146123 0.434112
vt 0.125818 0.462304
vt 0.120813 0.479686
vt 0.130705 0.499415
vt 0.125003 0.536063
vt 0.133995 0.552500
vt 0.146494 0.567939
vt 0.161795 0.581368
vt 0.197107 0.599493
vt 0.215021 0.602936
vt 0.215021 0.602936
vt 0.235393 0.602307
vt 0.156526 0.121184
vt 0.179978 0.119188
vt 0.221940 0.125769
vt 0.239493 0.133794
vt 0.239493 0.133794
vt 0.253774 0.144759
vt 0.265093 0.158619
vt 0.030998 0.042764
vt 0.358691 0.587535
vt 0.347608 0.319054
vt 0.147015 0.327683
vt 0.161795 0.581368
vt 0.076992 0.078461
vt 0.077642 0.078175
vt 0.078752 0.077930
vt 0.080130 0.089445
vt 0.078573 0.089394
vt 0.078993 0.089468
vt 0.081240 0.089200
vt 0.079889 0.077906
vt 0.081008 0.078105
vt 0.082280 0.088743
vt 0.083212 0.088092
vt 0.082067 0.078518
vt 0.083025 0.079130
vt 0.083999 0.087272
vt 0.084611 0.086314
vt 0.083846 0.079916
vt 0.084497 0.080848
vt 0.085024 0.085255
vt 0.085222 0.084135
vt 0.084953 0.081889
vt 0.077874 0.089270
vt 0.076602 0.078632
vt 0.075670 0.079283
vt 0.076815 0.088857
vt 0.075857 0.088245
vt 0.074883 0.080103
vt 0.074271 0.081061
vt 0.075037 0.087458
vt 0.074385 0.086527
vt 0.073858 0.082120
vt 0.073660 0.083239
vt 0.073929 0.085486
vn 0.0000 0.0000 -1.0000
vn 0.0000 1.0000 -0.0004
vn 0.0000 1.0000 -0.0000
vn 0.0000 1.0000 0.0016
vn 0.0000 0.0000 1.0000
vn 0.0000 1.0000 0.0036
vn 0.0000 0.9981 0.0624
vn 0.0000 -1.0000 0.0000
vn 0.0000 1.0000 0.0039
vn 1.0000 0.0000 0.0000
vn -1.0000 0.0000 0.0000
vn 0.0000 1.0000 -0.0035
s off
f 118/1/1 122/2/1 121/3/1
f 82/4/2 123/5/2 124/6/2
f 126/7/3 79/8/3 84/9/3
f 79/8/3 85/10/3 84/9/3
f 85/10/4 127/11/4 128/12/4
f 86/13/3 129/14/3 76/15/3
f 130/16/3 75/17/3 131/18/3
f 88/19/3 131/18/3 132/20/3
f 89/21/3 134/22/3 90/23/3
f 14/24/3 50/25/3 135/26/3
f 50/25/3 136/27/3 135/26/3
f 48/28/3 138/29/3 137/30/3
f 138/29/3 48/28/3 47/31/3
f 47/31/3 46/32/3 141/33/3
f 46/32/3 45/34/3 143/35/3
f 45/34/3 145/36/3 143/35/3
f 148/37/5 147/38/5 146/39/5
f 43/40/3 42/41/3 149/42/3
f 42/41/3 41/43/3 151/44/3
f 41/43/3 40/45/3 153/46/3
f 40/45/3 39/47/3 155/48/3
f 155/48/3 38/49/3 157/50/3
f 157/50/3 38/49/3 37/51/3
f 158/52/3 37/51/3 36/53/3
f 36/53/3 35/54/3 162/55/3
f 112/56/3 111/57/3 164/58/3
f 113/59/3 112/56/3 166/60/3
f 113/59/6 168/61/6 169/62/6
f 115/63/3 114/64/3 170/65/3
f 174/66/3 116/67/3 115/63/3
f 117/68/3 116/67/3 174/66/3
f 117/68/3 92/69/3 122/2/3
f 120/70/3 2/71/3 4/72/3
f 34/73/3 3/74/3 52/75/3
f 5/76/3 91/77/3 110/78/3
f 5/76/3 80/79/3 81/80/3
f 6/81/3 79/8/3 80/79/3
f 7/82/3 78/83/3 79/8/3
f 8/84/3 77/85/3 78/83/3
f 77/85/3 10/86/3 76/15/3
f 11/87/3 76/15/3 10/86/3
f 12/88/3 75/17/3 11/87/3
f 13/89/3 74/90/3 12/88/3
f 14/24/3 73/91/3 13/89/3
f 15/92/3 72/93/3 14/24/3
f 70/94/3 15/92/3 16/95/3
f 70/94/3 17/96/3 69/97/3
f 69/97/3 18/98/3 68/99/3
f 67/100/3 18/98/3 19/101/3
f 66/102/3 19/101/3 20/103/3
f 20/103/3 65/104/3 66/102/3
f 22/105/3 65/104/3 21/106/3
f 22/105/3 63/107/3 64/108/3
f 23/109/3 62/110/3 63/107/3
f 24/111/3 61/112/3 62/110/3
f 25/113/3 60/114/3 61/112/3
f 60/114/3 27/115/3 59/116/3
f 59/116/3 28/117/3 58/118/3
f 58/118/3 29/119/3 57/120/3
f 29/119/3 56/121/3 57/120/3
f 30/122/3 55/123/3 56/121/3
f 32/124/3 55/123/3 31/125/3
f 33/126/3 54/127/3 32/124/3
f 34/73/3 53/128/3 33/126/3
f 101/129/3 100/130/3 188/131/3
f 4/72/3 2/71/3 199/132/3
f 102/133/3 100/130/3 101/129/3
f 102/133/3 98/134/3 99/135/3
f 103/136/3 97/137/3 98/134/3
f 104/138/3 96/139/3 97/137/3
f 105/140/3 95/141/3 96/139/3
f 106/142/3 94/143/3 95/141/3
f 108/144/3 94/143/3 107/145/3
f 108/144/3 92/69/3 93/146/3
f 110/78/3 92/69/3 109/147/3
f 121/3/3 123/5/3 118/1/3
f 123/5/3 82/4/3 118/1/3
f 124/6/3 125/148/3 83/149/3
f 83/149/3 82/4/3 124/6/3
f 84/9/3 83/149/3 125/148/3
f 125/148/3 126/7/3 84/9/3
f 79/8/3 127/11/3 85/10/3
f 129/14/3 86/13/3 128/12/3
f 86/13/3 85/10/3 128/12/3
f 76/15/5 130/16/5 87/150/5
f 87/150/3 86/13/3 76/15/3
f 88/19/3 87/150/3 131/18/3
f 87/150/3 130/16/3 131/18/3
f 132/20/5 133/151/5 89/21/5
f 89/21/3 88/19/3 132/20/3
f 89/21/3 133/151/3 134/22/3
f 14/24/3 51/152/3 50/25/3
f 50/25/3 49/153/3 136/27/3
f 137/30/3 136/27/3 49/153/3
f 49/153/3 48/28/3 137/30/3
f 140/154/3 139/155/3 47/31/3
f 139/155/5 138/29/5 47/31/5
f 141/33/7 142/156/7 140/154/7
f 140/154/3 47/31/3 141/33/3
f 143/35/8 144/157/8 141/33/8
f 141/33/3 46/32/3 143/35/3
f 45/34/3 44/158/3 145/36/3
f 146/39/9 145/36/9 44/158/9
f 44/158/3 43/40/3 146/39/3
f 43/40/3 148/37/3 146/39/3
f 149/42/8 150/159/8 148/37/8
f 148/37/3 43/40/3 149/42/3
f 151/44/8 152/160/8 149/42/8
f 149/42/3 42/41/3 151/44/3
f 153/46/3 154/161/3 151/44/3
f 151/44/3 41/43/3 153/46/3
f 155/48/3 156/162/3 153/46/3
f 153/46/3 40/45/3 155/48/3
f 155/48/3 39/47/3 38/49/3
f 158/52/3 159/163/3 37/51/3
f 159/163/3 157/50/3 37/51/3
f 160/164/3 161/165/3 36/53/3
f 161/165/3 158/52/3 36/53/3
f 162/55/5 163/166/5 160/164/5
f 160/164/3 36/53/3 162/55/3
f 164/58/10 165/167/10 166/60/10
f 166/60/3 112/56/3 164/58/3
f 166/60/11 167/168/11 168/61/11
f 168/61/3 113/59/3 166/60/3
f 169/62/3 170/65/3 114/64/3
f 114/64/3 113/59/3 169/62/3
f 170/65/11 171/169/11 172/170/11
f 172/170/3 115/63/3 170/65/3
f 172/170/5 173/171/5 115/63/5
f 173/171/3 174/66/3 115/63/3
f 174/66/5 175/172/5 176/173/5
f 176/173/3 117/68/3 174/66/3
f 122/2/3 118/1/3 117/68/3
f 117/68/12 176/173/12 92/69/12
f 120/70/3 119/174/3 2/71/3
f 34/73/3 1/175/3 3/74/3
f 5/76/3 81/80/3 91/77/3
f 5/76/3 6/81/3 80/79/3
f 6/81/3 7/82/3 79/8/3
f 7/82/3 8/84/3 78/83/3
f 8/84/3 9/176/3 77/85/3
f 77/85/3 9/176/3 10/86/3
f 11/87/3 75/17/3 76/15/3
f 12/88/3 74/90/3 75/17/3
f 13/89/3 73/91/3 74/90/3
f 14/24/3 72/93/3 73/91/3
f 15/92/3 71/177/3 72/93/3
f 70/94/3 71/177/3 15/92/3
f 70/94/3 16/95/3 17/96/3
f 69/97/3 17/96/3 18/98/3
f 67/100/3 68/99/3 18/98/3
f 66/102/3 67/100/3 19/101/3
f 20/103/3 21/106/3 65/104/3
f 22/105/3 64/108/3 65/104/3
f 22/105/3 23/109/3 63/107/3
f 23/109/3 24/111/3 62/110/3
f 24/111/3 25/113/3 61/112/3
f 25/113/3 26/178/3 60/114/3
f 60/114/3 26/178/3 27/115/3
f 59/116/3 27/115/3 28/117/3
f 58/118/3 28/117/3 29/119/3
f 29/119/3 30/122/3 56/121/3
f 30/122/3 31/125/3 55/123/3
f 32/124/3 54/127/3 55/123/3
f 33/126/3 53/128/3 54/127/3
f 34/73/3 52/75/3 53/128/3
f 193/179/3 2/71/3 178/180/3
f 2/71/3 101/129/3 177/181/3
f 178/180/3 2/71/3 177/181/3
f 100/130/3 4/72/3 205/182/3
f 4/72/3 207/183/3 208/184/3
f 4/72/3 208/184/3 205/182/3
f 100/130/3 205/182/3 206/185/3
f 179/186/3 177/181/3 101/129/3
f 184/187/3 179/186/3 101/129/3
f 100/130/3 206/185/3 190/188/3
f 100/130/3 190/188/3 191/189/3
f 180/190/3 184/187/3 101/129/3
f 182/191/3 180/190/3 101/129/3
f 100/130/3 191/189/3 189/192/3
f 100/130/3 189/192/3 192/193/3
f 181/194/3 182/191/3 101/129/3
f 183/195/3 181/194/3 101/129/3
f 100/130/3 192/193/3 186/196/3
f 100/130/3 186/196/3 187/197/3
f 185/198/3 183/195/3 101/129/3
f 100/130/3 187/197/3 188/131/3
f 188/131/3 185/198/3 101/129/3
f 209/199/3 207/183/3 4/72/3
f 2/71/3 193/179/3 194/200/3
f 2/71/3 194/200/3 196/201/3
f 203/202/3 209/199/3 4/72/3
f 204/203/3 203/202/3 4/72/3
f 2/71/3 196/201/3 195/204/3
f 2/71/3 195/204/3 201/205/3
f 202/206/3 204/203/3 4/72/3
f 210/207/3 202/206/3 4/72/3
f 2/71/3 201/205/3 197/208/3
f 2/71/3 197/208/3 200/209/3
f 198/210/3 210/207/3 4/72/3
f 2/71/3 200/209/3 199/132/3
f 199/132/3 198/210/3 4/72/3
f 102/133/3 99/135/3 100/130/3
f 102/133/3 103/136/3 98/134/3
f 103/136/3 104/138/3 97/137/3
f 104/138/3 105/140/3 96/139/3
f 105/140/3 106/142/3 95/141/3
f 106/142/3 107/145/3 94/143/3
f 108/144/3 93/146/3 94/143/3
f 108/144/3 109/147/3 92/69/3
f 110/78/3 91/77/3 92/69/3

h -20.0 -0.2 -8.0