# Blender v3.5.1 OBJ File: 'golf7.blend'
# www.blender.org
o Cube.001_Cube.006
v -19.630894 0.299999 -18.400000
v -19.630894 0.299999 -21.599998
v -1.600035 0.299999 -0.400171
v 1.599966 0.299999 -0.400281
v 1.595631 0.299999 -1.734847
v 1.591265 0.299999 -3.456191
v 1.576330 0.299999 -5.183006
v 1.539497 0.299999 -6.921052
v 1.494408 0.299999 -8.662446
v 1.370043 0.299999 -10.436811
v 1.196712 0.299999 -12.227295
v 0.880497 0.299999 -14.063243
v 0.282679 0.299999 -15.944199
v -0.724854 0.299999 -17.768959
v -2.244846 0.299999 -19.285131
v -4.070612 0.299999 -20.288158
v -5.951153 0.299999 -20.883030
v -7.787117 0.299999 -21.199141
v -9.577108 0.299999 -21.371029
v -11.351479 0.299999 -21.495371
v -13.092583 0.299999 -21.539787
v -14.830627 0.299999 -21.576616
v -16.557312 0.299999 -21.591299
v -18.278656 0.299999 -21.595665
v -18.292786 0.299999 -18.395697
v -16.585567 0.299999 -18.391424
v -14.883926 0.299999 -18.377062
v -13.194168 0.299999 -18.341400
v -11.508114 0.299999 -18.299208
v -9.862307 0.299999 -18.183762
v -8.242229 0.299999 -18.031668
v -6.698399 0.299999 -17.771500
v -5.317459 0.299999 -17.341064
v -4.159576 0.299999 -16.721186
v -3.284500 0.299999 -15.848488
v -2.662588 0.299999 -14.693034
v -2.230488 0.299999 -13.313724
v -1.970428 0.299999 -11.769879
v -1.817135 0.299999 -10.150610
v -1.701708 0.299999 -8.504800
v -1.658880 0.299999 -6.819090
v -1.623222 0.299999 -5.129330
v -1.608608 0.299999 -3.427833
v -1.604336 0.299999 -1.720610
v -18.358843 0.299999 -19.956663
v -18.362686 0.299999 -19.995682
v -18.347462 0.299999 -20.072218
v -18.347462 0.299999 -19.919146
v -18.358843 0.299999 -20.034700
v -18.328979 0.299999 -19.884567
v -18.285027 0.299999 -20.152761
v -18.304108 0.299999 -20.137104
v -18.304108 0.299999 -19.854259
v -18.286409 0.299999 -19.839735
v -18.328979 0.299999 -20.106796
v -18.273800 0.299999 -19.829388
v -18.239222 0.299999 -20.180458
v -18.239222 0.299999 -19.810905
v -18.273800 0.299999 -20.161976
v -18.201704 0.299999 -19.799524
v -18.123667 0.299999 -19.799524
v -18.123667 0.299999 -20.191839
v -18.162685 0.299999 -19.795681
v -18.162685 0.299999 -20.195683
v -18.201704 0.299999 -20.191839
v -18.051571 0.299999 -19.829388
v -18.051571 0.299999 -20.161976
v -17.962685 0.299999 -19.995682
v -17.966528 0.299999 -19.956663
v -17.966528 0.299999 -20.034700
v -17.977909 0.299999 -19.919146
v -17.977909 0.299999 -20.072218
v -17.996391 0.299999 -20.106796
v -18.021263 0.299999 -20.137104
v -18.086149 0.299999 -20.180458
v -17.996391 0.299999 -19.884567
v -18.021263 0.299999 -19.854259
v -18.086149 0.299999 -19.810905
v -15.734747 0.299999 -18.384243
v -15.693970 0.299999 -21.583958
v -16.125641 0.299999 -21.587627
v -16.160156 0.299999 -18.387833
v -9.705447 0.299999 -19.936758
v -6.287414 0.299999 -19.482841
v -4.631693 0.299999 -18.961966
v -3.106475 0.299999 -18.131355
v -0.519446 0.299999 -13.725959
v 0.136532 0.299999 -5.158852
v 0.056156 0.299999 -8.591505
v 0.155646 0.299999 -1.728441
v -16.570026 0.299999 -20.151356
v -11.421965 0.299999 -20.057098
v -0.228501 0.299999 -12.021458
v 0.100227 0.299999 -6.875169
v -13.138296 0.299999 -20.100513
v 0.151322 0.299999 -3.443430
v -1.042691 0.299999 -15.381175
v -0.064187 0.299999 -10.308021
v 0.159966 0.299999 -0.400231
v -7.991918 0.299999 -19.773777
v -14.854612 0.299999 -20.136816
v -1.876694 0.299999 -16.904747
v -15.712319 0.299999 -20.144087
v -16.141172 0.299999 -20.147720
v -9.736819 0.299999 -19.586159
v -6.369611 0.299999 -19.140574
v -4.768847 0.299999 -18.637785
v -3.317095 0.299999 -17.849321
v -0.861655 0.299999 -13.643512
v -0.215419 0.299999 -5.152947
v -0.295417 0.299999 -8.574164
v -0.196351 0.299999 -1.726874
v -16.573135 0.299999 -19.799370
v -11.439195 0.299999 -19.705521
v -0.576886 0.299999 -11.971142
v -0.251594 0.299999 -6.863954
v -13.149470 0.299999 -19.748692
v -0.200664 0.299999 -3.440311
v -1.366671 0.299999 -15.243546
v -0.414777 0.299999 -10.276538
v -8.041980 0.299999 -19.425354
v -14.860476 0.299999 -19.784864
v -2.158256 0.299999 -16.693495
v -15.716805 0.299999 -19.792118
v -16.144970 0.299999 -19.795742
v -0.192034 0.299999 -0.400219
vt 0.853058 0.060162
vt 0.872555 0.021076
vt 0.851384 0.010474
vt 0.856286 0.733642
vt 0.898431 0.696062
vt 0.856804 0.732466
vt 0.827639 0.725019
vt 0.849887 0.731872
vt 0.850406 0.730697
vt 0.815136 0.718490
vt 0.802633 0.711960
vt 0.781076 0.754119
vt 0.777935 0.698254
vt 0.756067 0.740237
vt 0.753341 0.684340
vt 0.731123 0.726111
vt 0.729878 0.668162
vt 0.706868 0.709389
vt 0.707086 0.650752
vt 0.683084 0.691154
vt 0.686312 0.629646
vt 0.660747 0.668340
vt 0.676431 0.593616
vt 0.692561 0.620187
vt 0.717557 0.582353
vt 0.666700 0.559743
vt 0.703594 0.559528
vt 0.666685 0.517224
vt 0.695700 0.532775
vt 0.676401 0.468762
vt 0.695687 0.500671
vt 0.692540 0.417997
vt 0.703560 0.462118
vt 0.686294 0.417901
vt 0.707119 0.365641
vt 0.683135 0.361198
vt 0.735556 0.315706
vt 0.712982 0.366726
vt 0.736434 0.371070
vt 0.729938 0.314050
vt 0.753448 0.262692
vt 0.731258 0.254187
vt 0.778076 0.211901
vt 0.756241 0.202652
vt 0.802819 0.161168
vt 0.781296 0.151276
vt 0.827865 0.110620
vt 0.806507 0.100392
vt 0.831793 0.049747
vt 0.821387 0.721754
vt 0.799953 0.763978
vt 0.826627 0.711433
vt 0.820385 0.708174
vt 0.832868 0.714692
vt 0.833085 0.113120
vt 0.858256 0.062707
vt 0.808080 0.163586
vt 0.783414 0.214162
vt 0.758872 0.264771
vt 0.706955 0.307276
vt 0.660746 0.417510
vt 0.641834 0.477219
vt 0.669611 0.470423
vt 0.629773 0.538292
vt 0.659434 0.521363
vt 0.629791 0.594065
vt 0.659450 0.566485
vt 0.641861 0.637002
vt 0.669641 0.602139
vt 0.712953 0.640876
vt 0.735502 0.658084
vt 0.758772 0.674129
vt 0.783280 0.687992
vt 0.807903 0.701655
vt 0.877730 0.023667
vt 0.879048 0.072891
vt 0.898431 0.034034
vt 0.841383 0.666909
vt 0.828980 0.660433
vt 0.804663 0.646942
vt 0.780496 0.633286
vt 0.758000 0.617772
vt 0.736422 0.601371
vt 0.717521 0.418379
vt 0.758027 0.322329
vt 0.780568 0.273087
vt 0.804764 0.223206
vt 0.829125 0.173258
vt 0.853968 0.123121
vt 0.853786 0.673385
vt 0.847584 0.670147
vt 0.857462 0.728495
vt 0.878822 0.686082
vt 0.851304 0.790153
vt 0.852831 0.737689
vt 0.831488 0.780068
vt 0.854154 0.736661
vt 0.853342 0.737369
vt 0.857508 0.729052
vt 0.857427 0.730127
vt 0.854935 0.735780
vt 0.855655 0.734761
vt 0.857190 0.731279
vt 0.852531 0.737877
vt 0.849883 0.737650
vt 0.806245 0.767265
vt 0.851750 0.738166
vt 0.852538 0.727678
vt 0.853350 0.726970
vt 0.855661 0.726114
vt 0.854161 0.726461
vt 0.854942 0.726173
vt 0.857429 0.728098
vt 0.857192 0.727300
vt 0.851757 0.728558
vt 0.851031 0.738224
vt 0.850401 0.738050
vt 0.856808 0.726689
vt 0.856291 0.726289
vt 0.849500 0.737039
vt 0.849263 0.736241
vt 0.849184 0.735286
vt 0.851037 0.729578
vt 0.849265 0.734212
vt 0.849502 0.733059
vt 0.793661 0.760692
vn 0.0000 1.0000 0.0000
s off
f 90/1/1 99/2/1 4/3/1
f 46/4/1 1/5/1 45/6/1
f 91/7/1 70/8/1 68/9/1
f 103/10/1 101/11/1 22/12/1
f 101/11/1 95/13/1 21/14/1
f 95/13/1 92/15/1 20/16/1
f 92/15/1 83/17/1 19/18/1
f 83/17/1 100/19/1 18/20/1
f 100/19/1 84/21/1 17/22/1
f 107/23/1 106/24/1 32/25/1
f 108/26/1 107/23/1 33/27/1
f 123/28/1 108/26/1 34/29/1
f 119/30/1 123/28/1 35/31/1
f 109/32/1 119/30/1 36/33/1
f 87/34/1 93/35/1 11/36/1
f 120/37/1 115/38/1 38/39/1
f 98/40/1 89/41/1 9/42/1
f 89/41/1 94/43/1 8/44/1
f 94/43/1 88/45/1 7/46/1
f 88/45/1 96/47/1 6/48/1
f 96/47/1 90/1/1 5/49/1
f 91/7/1 104/50/1 81/51/1
f 125/52/1 124/53/1 103/10/1
f 113/54/1 125/52/1 104/50/1
f 118/55/1 112/56/1 90/1/1
f 110/57/1 118/55/1 96/47/1
f 116/58/1 110/57/1 88/45/1
f 111/59/1 116/58/1 94/43/1
f 120/37/1 111/59/1 89/41/1
f 10/60/1 11/36/1 93/35/1
f 109/32/1 115/38/1 93/35/1
f 12/61/1 13/62/1 97/63/1
f 13/62/1 14/64/1 102/65/1
f 14/64/1 15/66/1 86/67/1
f 15/66/1 16/68/1 85/69/1
f 16/68/1 17/22/1 84/21/1
f 121/70/1 106/24/1 84/21/1
f 105/71/1 121/70/1 100/19/1
f 114/72/1 105/71/1 83/17/1
f 117/73/1 114/72/1 92/15/1
f 122/74/1 117/73/1 95/13/1
f 124/53/1 122/74/1 101/11/1
f 112/56/1 126/75/1 99/2/1
f 44/76/1 3/77/1 126/75/1
f 79/78/1 27/79/1 122/74/1
f 27/79/1 28/80/1 117/73/1
f 28/80/1 29/81/1 114/72/1
f 29/81/1 30/82/1 105/71/1
f 30/82/1 31/83/1 121/70/1
f 31/83/1 32/25/1 106/24/1
f 37/84/1 38/39/1 115/38/1
f 39/85/1 40/86/1 111/59/1
f 40/86/1 41/87/1 116/58/1
f 41/87/1 42/88/1 110/57/1
f 42/88/1 43/89/1 118/55/1
f 43/89/1 44/76/1 112/56/1
f 26/90/1 82/91/1 125/52/1
f 98/40/1 93/35/1 115/38/1
f 87/34/1 97/63/1 119/30/1
f 97/63/1 102/65/1 123/28/1
f 102/65/1 86/67/1 108/26/1
f 86/67/1 85/69/1 107/23/1
f 85/69/1 84/21/1 106/24/1
f 90/1/1 4/3/1 5/49/1
f 54/92/1 1/5/1 25/93/1
f 1/5/1 46/4/1 2/94/1
f 2/94/1 51/95/1 24/96/1
f 55/97/1 52/98/1 2/94/1
f 51/95/1 2/94/1 52/98/1
f 53/99/1 1/5/1 54/92/1
f 50/100/1 1/5/1 53/99/1
f 2/94/1 47/101/1 55/97/1
f 2/94/1 49/102/1 47/101/1
f 48/103/1 1/5/1 50/100/1
f 45/6/1 1/5/1 48/103/1
f 2/94/1 46/4/1 49/102/1
f 51/95/1 59/104/1 24/96/1
f 24/96/1 62/105/1 23/106/1
f 59/104/1 57/107/1 24/96/1
f 23/106/1 62/105/1 91/7/1
f 91/7/1 68/9/1 113/54/1
f 76/108/1 77/109/1 113/54/1
f 113/54/1 61/110/1 26/90/1
f 26/90/1 61/110/1 25/93/1
f 113/54/1 66/111/1 78/112/1
f 25/93/1 56/113/1 54/92/1
f 25/93/1 58/114/1 56/113/1
f 113/54/1 71/115/1 76/108/1
f 78/112/1 61/110/1 113/54/1
f 77/109/1 66/111/1 113/54/1
f 57/107/1 65/116/1 24/96/1
f 65/116/1 64/117/1 24/96/1
f 25/93/1 60/118/1 58/114/1
f 25/93/1 63/119/1 60/118/1
f 64/117/1 62/105/1 24/96/1
f 25/93/1 61/110/1 63/119/1
f 75/120/1 91/7/1 62/105/1
f 67/121/1 91/7/1 75/120/1
f 74/122/1 91/7/1 67/121/1
f 113/54/1 69/123/1 71/115/1
f 73/124/1 91/7/1 74/122/1
f 72/125/1 91/7/1 73/124/1
f 113/54/1 68/9/1 69/123/1
f 70/8/1 91/7/1 72/125/1
f 103/10/1 22/12/1 80/126/1
f 101/11/1 21/14/1 22/12/1
f 95/13/1 20/16/1 21/14/1
f 92/15/1 19/18/1 20/16/1
f 83/17/1 18/20/1 19/18/1
f 100/19/1 17/22/1 18/20/1
f 107/23/1 32/25/1 33/27/1
f 108/26/1 33/27/1 34/29/1
f 123/28/1 34/29/1 35/31/1
f 119/30/1 35/31/1 36/33/1
f 109/32/1 36/33/1 37/84/1
f 87/34/1 11/36/1 12/61/1
f 120/37/1 38/39/1 39/85/1
f 98/40/1 9/42/1 10/60/1
f 89/41/1 8/44/1 9/42/1
f 94/43/1 7/46/1 8/44/1
f 88/45/1 6/48/1 7/46/1
f 96/47/1 5/49/1 6/48/1
f 91/7/1 81/51/1 23/106/1
f 125/52/1 103/10/1 104/50/1
f 113/54/1 104/50/1 91/7/1
f 118/55/1 90/1/1 96/47/1
f 110/57/1 96/47/1 88/45/1
f 116/58/1 88/45/1 94/43/1
f 111/59/1 94/43/1 89/41/1
f 120/37/1 89/41/1 98/40/1
f 10/60/1 93/35/1 98/40/1
f 109/32/1 93/35/1 87/34/1
f 12/61/1 97/63/1 87/34/1
f 13/62/1 102/65/1 97/63/1
f 14/64/1 86/67/1 102/65/1
f 15/66/1 85/69/1 86/67/1
f 16/68/1 84/21/1 85/69/1
f 121/70/1 84/21/1 100/19/1
f 105/71/1 100/19/1 83/17/1
f 114/72/1 83/17/1 92/15/1
f 117/73/1 92/15/1 95/13/1
f 122/74/1 95/13/1 101/11/1
f 124/53/1 101/11/1 103/10/1
f 112/56/1 99/2/1 90/1/1
f 44/76/1 126/75/1 112/56/1
f 79/78/1 122/74/1 124/53/1
f 27/79/1 117/73/1 122/74/1
f 28/80/1 114/72/1 117/73/1
f 29/81/1 105/71/1 114/72/1
f 30/82/1 121/70/1 105/71/1
f 31/83/1 106/24/1 121/70/1
f 37/84/1 115/38/1 109/32/1
f 39/85/1 111/59/1 120/37/1
f 40/86/1 116/58/1 111/59/1
f 41/87/1 110/57/1 116/58/1
f 42/88/1 118/55/1 110/57/1
f 43/89/1 112/56/1 118/55/1
f 26/90/1 125/52/1 113/54/1
f 98/40/1 115/38/1 120/37/1
f 87/34/1 119/30/1 109/32/1
f 97/63/1 123/28/1 119/30/1
f 102/65/1 108/26/1 123/28/1
f 86/67/1 107/23/1 108/26/1
f 85/69/1 106/24/1 107/23/1

h -18.16 -0.21 -20.0