# Blender v3.1.2 OBJ File: 'golf2.blend'
# www.blender.org
o Cube.001_Cube
v -2.000000 -0.500000 0.000000
v 8.000000 -0.200000 -17.800003
v -1.600000 0.300000 -0.400001
v -2.000000 0.600000 0.000000
v -2.000000 -0.500000 -20.000004
v 7.960982 -0.200000 -17.803844
v -2.000000 0.600000 -20.000004
v 7.923463 -0.200000 -17.815226
v 2.000000 -0.500000 0.000000
v 1.600000 0.300000 -0.400001
v 7.888886 -0.200000 -17.833708
v 2.000000 0.600000 0.000000
v 2.000000 -0.500000 -20.000004
v 7.858579 -0.200000 -17.858582
v 0.100000 0.300000 -19.600004
v 2.000000 0.600000 -20.000004
v 7.833706 -0.200000 -17.888889
v -2.000000 -0.500000 -16.000004
v -1.600000 0.300000 -17.900005
v 7.815224 -0.200000 -17.923466
v -2.000000 0.600000 -16.000004
v 2.000000 -0.500000 -16.000004
v 7.803843 -0.200000 -17.960983
v 1.600000 0.300000 -16.400003
v 2.000000 0.600000 -16.000004
v 7.800000 -0.200000 -18.000002
v 10.000000 0.600000 -20.000004
v 10.000000 -0.500000 -20.000004
v 7.803843 -0.200000 -18.039021
v 9.600000 0.300000 -19.600004
v 10.000000 -0.500000 -16.000004
v 7.815224 -0.200000 -18.076538
v 9.600000 0.300000 -16.400003
v 10.000000 0.600000 -16.000004
v 7.833706 -0.200000 -18.111115
v 1.600000 0.600000 -16.000004
v -1.600000 0.600000 -16.000004
v 7.858579 -0.200000 -18.141422
v -1.600000 0.600000 -0.400001
v 1.600000 0.600000 -0.400001
v 7.888886 -0.200000 -18.166296
v -1.600000 0.600000 -17.900005
v 7.923463 -0.200000 -18.184778
v 1.600000 0.600000 -16.400003
v 2.000000 0.600000 -16.400003
v 7.960982 -0.200000 -18.196159
v 0.100000 0.600000 -19.600004
v 2.000000 0.600000 -19.600004
v 8.000000 -0.200000 -18.200001
v 9.600000 0.600000 -16.400003
v 9.600000 0.600000 -19.600004
v 8.039018 -0.200000 -18.196159
v 8.076537 -0.200000 -18.184778
v 8.111115 -0.200000 -18.166296
v 8.141421 -0.200000 -18.141422
v 8.166294 -0.200000 -18.111115
v 8.184776 -0.200000 -18.076538
v 8.196157 -0.200000 -18.039021
v 8.200000 -0.200000 -18.000002
v 8.196157 -0.200000 -17.960983
v 8.184776 -0.200000 -17.923466
v 8.166294 -0.200000 -17.888889
v 8.141421 -0.200000 -17.858582
v 8.111115 -0.200000 -17.833708
v 8.076537 -0.200000 -17.815226
v 8.039018 -0.200000 -17.803844
v 7.800000 0.300000 -18.000002
v 7.803843 0.300000 -17.960983
v 7.803843 0.300000 -18.039021
v 7.815224 0.300000 -18.076538
v 7.833706 0.300000 -18.111115
v 7.833706 0.300000 -17.888889
v 7.815224 0.300000 -17.923466
v 7.858579 0.300000 -18.141422
v 7.888886 0.300000 -18.166296
v 7.888886 0.300000 -17.833708
v 7.923463 0.300000 -18.184778
v 8.000000 0.300000 -17.800003
v 7.960982 0.300000 -18.196159
v 7.960982 0.300000 -17.803844
v 7.923463 0.300000 -17.815226
v 7.858579 0.300000 -17.858582
v 8.039018 0.300000 -17.803844
v 8.000000 0.300000 -18.200001
v 8.076537 0.300000 -17.815226
v 8.039018 0.300000 -18.196159
v 8.111115 0.300000 -17.833708
v 8.076537 0.300000 -18.184778
v 8.141421 0.300000 -17.858582
v 8.111115 0.300000 -18.166296
v 8.166294 0.300000 -17.888889
v 8.184776 0.300000 -17.923466
v 8.166294 0.300000 -18.111115
v 8.200000 0.300000 -18.000002
v 8.199852 0.300000 -18.001503
v 8.196157 0.300000 -17.960983
v 8.196157 0.300000 -18.039021
v 8.184776 0.300000 -18.076538
v 8.141421 0.300000 -18.141422
vt 0.603585 0.704053
vt 0.576378 0.454655
vt 0.603585 0.454655
vt 0.015516 0.423398
vt 0.264915 0.287438
vt 0.264915 0.423398
vt 0.685206 0.984484
vt 0.576378 0.735085
vt 0.685206 0.735085
vt 0.879470 0.264915
vt 0.743446 0.015516
vt 0.879470 0.015516
vt 0.323154 0.590669
vt 0.431982 0.726704
vt 0.323154 0.726704
vt 0.576378 0.423622
vt 0.576378 0.287587
vt 0.579098 0.410019
vt 0.712413 0.423622
vt 0.698129 0.410019
vt 0.709692 0.352204
vt 0.687927 0.287587
vt 0.685206 0.301190
vt 0.685206 0.287587
vt 0.295947 0.590669
vt 0.295947 0.726704
vt 0.015516 0.287438
vt 0.264915 0.015516
vt 0.712413 0.704053
vt 0.712413 0.454655
vt 0.937710 0.264915
vt 0.910503 0.015516
vt 0.937710 0.015516
vt 0.709692 0.029120
vt 0.687927 0.029120
vt 0.685206 0.015516
vt 0.323154 0.318598
vt 0.545345 0.015516
vt 0.295947 0.287566
vt 0.295947 0.015516
vt 0.576378 0.704053
vt 0.576378 0.984484
vt 0.743446 0.264915
vt 0.431982 0.590669
vt 0.685206 0.410019
vt 0.685206 0.423622
vt 0.579098 0.301190
vt 0.709692 0.287587
vt 0.712413 0.287587
vt 0.687927 0.301190
vt 0.015516 0.015516
vt 0.910503 0.264915
vt 0.712413 0.015516
vt 0.295947 0.318598
vt 0.545345 0.287566
vt 0.531033 0.839473
vt 0.463015 0.733365
vt 0.531033 0.730644
vt 0.716239 0.735086
vt 0.784256 0.843854
vt 0.716239 0.843854
vt 0.531033 0.699612
vt 0.463015 0.441165
vt 0.531033 0.376553
vt 0.811463 0.414978
vt 0.743446 0.402055
vt 0.811463 0.295947
vt 0.809579 0.446295
vt 0.787813 0.514313
vt 0.787813 0.446295
vt 0.245160 0.726353
vt 0.177143 0.726353
vt 0.177143 0.712757
vt 0.751475 0.446295
vt 0.750150 0.559658
vt 0.750150 0.446295
vt 0.752748 0.446295
vt 0.751475 0.559658
vt 0.753919 0.446295
vt 0.752748 0.559658
vt 0.754943 0.446295
vt 0.753919 0.559658
vt 0.755782 0.446295
vt 0.754943 0.559658
vt 0.756402 0.446295
vt 0.755782 0.559658
vt 0.756781 0.446295
vt 0.756402 0.559658
vt 0.819383 0.590690
vt 0.819648 0.704053
vt 0.819383 0.704053
vt 0.819648 0.590690
vt 0.819914 0.704053
vt 0.743446 0.590690
vt 0.743836 0.704053
vt 0.743446 0.704053
vt 0.743836 0.590690
vt 0.744467 0.704053
vt 0.744467 0.590690
vt 0.745316 0.704053
vt 0.745316 0.590690
vt 0.746348 0.704053
vt 0.746348 0.590690
vt 0.747526 0.704053
vt 0.747526 0.590690
vt 0.748803 0.704053
vt 0.748803 0.590690
vt 0.750130 0.704053
vt 0.750130 0.590690
vt 0.751456 0.704053
vt 0.751456 0.590690
vt 0.752731 0.704053
vt 0.752731 0.590690
vt 0.753906 0.704053
vt 0.753906 0.590690
vt 0.754934 0.704053
vt 0.754934 0.590690
vt 0.755777 0.704053
vt 0.755777 0.590690
vt 0.756403 0.704053
vt 0.756403 0.590690
vt 0.756787 0.704053
vt 0.788085 0.590690
vt 0.788085 0.704053
vt 0.788074 0.704053
vt 0.788350 0.590690
vt 0.743841 0.446295
vt 0.743446 0.559658
vt 0.743446 0.446295
vt 0.744477 0.446295
vt 0.743841 0.559658
vt 0.745329 0.446295
vt 0.744477 0.559658
vt 0.746365 0.446295
vt 0.745329 0.559658
vt 0.747545 0.446295
vt 0.746365 0.559658
vt 0.178900 0.770478
vt 0.178637 0.770860
vt 0.177859 0.770458
vt 0.748822 0.446295
vt 0.747545 0.559658
vt 0.748822 0.559658
vt 0.463015 0.376553
vt 0.531033 0.318598
vt 0.463015 0.839473
vt 0.463015 0.730644
vt 0.784256 0.735086
vt 0.463015 0.699612
vt 0.743446 0.414978
vt 0.743446 0.295947
vt 0.809579 0.514313
vt 0.177143 0.454431
vt 0.245160 0.454431
vt 0.756781 0.559658
vt 0.819914 0.590690
vt 0.756787 0.590690
vt 0.787819 0.704053
vt 0.787819 0.590690
vt 0.788350 0.704053
vt 0.178369 0.770986
vt 0.178106 0.770850
vt 0.177636 0.769825
vt 0.179147 0.769855
vt 0.177446 0.768975
vt 0.179370 0.769013
vt 0.177298 0.767941
vt 0.179559 0.767986
vt 0.177195 0.766763
vt 0.179708 0.766813
vt 0.177143 0.765486
vt 0.179811 0.765538
vt 0.177143 0.764159
vt 0.179863 0.764212
vt 0.177195 0.762832
vt 0.179863 0.762885
vt 0.177298 0.761558
vt 0.179811 0.761608
vt 0.177446 0.760385
vt 0.179708 0.760430
vt 0.177636 0.759358
vt 0.179559 0.759396
vt 0.177859 0.758516
vt 0.179370 0.758546
vt 0.178106 0.757892
vt 0.179147 0.757913
vt 0.178369 0.757510
vt 0.178637 0.757385
vt 0.178900 0.757521
vt 0.463015 0.318598
vn -1.0000 0.0000 0.0000
vn 0.0000 0.0000 -1.0000
vn 1.0000 0.0000 0.0000
vn 0.0000 0.0000 1.0000
vn 0.0000 -1.0000 0.0000
vn 0.0000 1.0000 0.0000
vn 0.0980 0.0000 -0.9952
vn 0.2903 0.0000 -0.9569
vn 0.4714 0.0000 -0.8819
vn 0.6344 0.0000 -0.7730
vn 0.7730 0.0000 -0.6344
vn 0.8819 0.0000 -0.4714
vn 0.9569 0.0000 -0.2903
vn 0.9952 0.0000 -0.0980
vn 0.9952 0.0000 0.0980
vn 0.9569 0.0000 0.2903
vn 0.8819 0.0000 0.4714
vn 0.7730 0.0000 0.6344
vn 0.6344 0.0000 0.7730
vn 0.4714 0.0000 0.8819
vn 0.2902 0.0000 0.9570
vn 0.0980 0.0000 0.9952
vn -0.0980 0.0000 0.9952
vn -0.2903 0.0000 0.9569
vn -0.4714 0.0000 0.8819
vn -0.6344 0.0000 0.7730
vn -0.7730 0.0000 0.6344
vn -0.8819 0.0000 0.4714
vn -0.9569 0.0000 0.2903
vn -0.9952 0.0000 0.0981
vn -0.9952 0.0000 -0.0980
vn -0.9569 0.0000 -0.2903
vn -0.8819 0.0000 -0.4714
vn -0.7730 0.0000 -0.6344
vn -0.6344 0.0000 -0.7730
vn -0.4714 0.0000 -0.8819
vn -0.2902 0.0000 -0.9570
vn -0.0980 0.0000 -0.9952
vn 0.7071 0.0000 0.7071
vn 0.2902 0.0000 -0.9570
vn 0.2903 0.0000 0.9569
vn -0.2902 0.0000 0.9570
vn -0.9952 0.0000 0.0980
vn -0.2903 0.0000 -0.9569
s off
f 21/1/1 5/2/1 18/3/1
f 7/4/2 13/5/2 5/6/2
f 25/7/3 9/8/3 22/9/3
f 12/10/4 1/11/4 9/12/4
f 22/13/5 1/14/5 18/15/5
f 4/16/6 12/17/6 39/18/6
f 7/19/6 42/20/6 47/21/6
f 45/22/6 36/23/6 25/24/6
f 13/25/5 18/15/5 5/26/5
f 16/27/2 28/28/2 13/5/2
f 4/29/1 18/3/1 1/30/1
f 27/31/3 31/32/3 28/33/3
f 51/34/6 50/35/6 34/36/6
f 13/25/5 31/37/5 22/13/5
f 22/38/4 34/39/4 25/40/4
f 21/1/1 7/41/1 5/2/1
f 7/4/2 16/27/2 13/5/2
f 25/7/3 12/42/3 9/8/3
f 12/10/4 4/43/4 1/11/4
f 22/13/5 9/44/5 1/14/5
f 39/18/6 37/45/6 21/46/6
f 12/17/6 25/24/6 40/47/6
f 25/24/6 36/23/6 40/47/6
f 39/18/6 21/46/6 4/16/6
f 12/17/6 40/47/6 39/18/6
f 47/21/6 48/48/6 16/49/6
f 7/19/6 21/46/6 42/20/6
f 21/46/6 37/45/6 42/20/6
f 47/21/6 16/49/6 7/19/6
f 45/22/6 44/50/6 36/23/6
f 13/25/5 22/13/5 18/15/5
f 16/27/2 27/51/2 28/28/2
f 4/29/1 21/1/1 18/3/1
f 27/31/3 34/52/3 31/32/3
f 50/35/6 45/22/6 25/24/6
f 27/53/6 16/49/6 51/34/6
f 16/49/6 48/48/6 51/34/6
f 50/35/6 25/24/6 34/36/6
f 27/53/6 51/34/6 34/36/6
f 13/25/5 28/54/5 31/37/5
f 22/38/4 31/55/4 34/39/4
f 10/56/1 36/57/1 24/58/1
f 3/59/2 40/60/2 10/61/2
f 30/62/4 48/63/4 15/64/4
f 19/65/3 37/66/3 3/67/3
f 33/68/1 51/69/1 30/70/1
f 24/71/2 44/72/2 45/73/2
f 6/74/7 78/75/7 2/76/7
f 8/77/8 80/78/8 6/74/8
f 11/79/9 81/80/9 8/77/9
f 14/81/10 76/82/10 11/79/10
f 17/83/11 82/84/11 14/81/11
f 20/85/12 72/86/12 17/83/12
f 23/87/13 73/88/13 20/85/13
f 23/89/14 67/90/14 68/91/14
f 26/92/15 69/93/15 67/90/15
f 29/94/16 70/95/16 69/96/16
f 32/97/17 71/98/17 70/95/17
f 35/99/18 74/100/18 71/98/18
f 38/101/19 75/102/19 74/100/19
f 41/103/20 77/104/20 75/102/20
f 43/105/21 79/106/21 77/104/21
f 46/107/22 84/108/22 79/106/22
f 49/109/23 86/110/23 84/108/23
f 52/111/24 88/112/24 86/110/24
f 53/113/25 90/114/25 88/112/25
f 54/115/26 99/116/26 90/114/26
f 55/117/27 93/118/27 99/116/27
f 56/119/28 98/120/28 93/118/28
f 57/121/29 97/122/29 98/120/29
f 59/123/30 94/124/30 95/125/30
f 60/126/31 94/124/31 59/123/31
f 61/127/32 96/128/32 60/129/32
f 62/130/33 92/131/33 61/127/33
f 63/132/34 91/133/34 62/130/34
f 64/134/35 89/135/35 63/132/35
f 65/136/36 87/137/36 64/134/36
f 61/138/6 60/139/6 57/140/6
f 66/141/37 85/142/37 65/136/37
f 2/76/38 83/143/38 66/141/38
f 47/144/39 19/145/39 15/64/39
f 40/146/1 36/57/1 10/56/1
f 36/57/1 44/147/1 24/58/1
f 3/59/2 39/148/2 40/60/2
f 51/149/4 48/63/4 30/62/4
f 48/63/4 47/144/4 15/64/4
f 42/150/3 37/66/3 19/65/3
f 37/66/3 39/151/3 3/67/3
f 33/68/1 50/152/1 51/69/1
f 45/73/2 50/153/2 33/154/2
f 33/154/2 24/71/2 45/73/2
f 6/74/7 80/78/7 78/75/7
f 8/77/40 81/80/40 80/78/40
f 11/79/9 76/82/9 81/80/9
f 14/81/10 82/84/10 76/82/10
f 17/83/11 72/86/11 82/84/11
f 20/85/12 73/88/12 72/86/12
f 23/87/13 68/155/13 73/88/13
f 23/89/14 26/92/14 67/90/14
f 26/92/15 29/156/15 69/93/15
f 29/94/16 32/97/16 70/95/16
f 32/97/17 35/99/17 71/98/17
f 35/99/18 38/101/18 74/100/18
f 38/101/19 41/103/19 75/102/19
f 41/103/20 43/105/20 77/104/20
f 43/105/41 46/107/41 79/106/41
f 46/107/22 49/109/22 84/108/22
f 49/109/23 52/111/23 86/110/23
f 52/111/42 53/113/42 88/112/42
f 53/113/25 54/115/25 90/114/25
f 54/115/26 55/117/26 99/116/26
f 55/117/27 56/119/27 93/118/27
f 56/119/28 57/121/28 98/120/28
f 57/121/29 58/157/29 97/122/29
f 97/158/43 58/159/43 95/125/43
f 58/159/43 59/123/43 95/125/43
f 60/126/31 96/160/31 94/124/31
f 61/127/32 92/131/32 96/128/32
f 62/130/33 91/133/33 92/131/33
f 63/132/34 89/135/34 91/133/34
f 64/134/35 87/137/35 89/135/35
f 65/136/36 85/142/36 87/137/36
f 59/161/6 58/162/6 60/139/6
f 58/162/6 57/140/6 60/139/6
f 57/140/6 56/163/6 62/164/6
f 56/163/6 55/165/6 63/166/6
f 55/165/6 54/167/6 64/168/6
f 54/167/6 53/169/6 65/170/6
f 53/169/6 52/171/6 66/172/6
f 52/171/6 49/173/6 2/174/6
f 49/173/6 46/175/6 6/176/6
f 46/175/6 43/177/6 8/178/6
f 43/177/6 41/179/6 11/180/6
f 41/179/6 38/181/6 14/182/6
f 38/181/6 35/183/6 17/184/6
f 35/183/6 32/185/6 20/186/6
f 32/185/6 29/187/6 20/186/6
f 29/187/6 26/188/6 23/189/6
f 20/186/6 29/187/6 23/189/6
f 20/186/6 17/184/6 35/183/6
f 17/184/6 14/182/6 38/181/6
f 14/182/6 11/180/6 41/179/6
f 11/180/6 8/178/6 43/177/6
f 8/178/6 6/176/6 46/175/6
f 6/176/6 2/174/6 49/173/6
f 2/174/6 66/172/6 52/171/6
f 66/172/6 65/170/6 53/169/6
f 65/170/6 64/168/6 54/167/6
f 64/168/6 63/166/6 55/165/6
f 63/166/6 62/164/6 56/163/6
f 62/164/6 61/138/6 57/140/6
f 66/141/44 83/143/44 85/142/44
f 2/76/38 78/75/38 83/143/38
f 47/144/39 42/190/39 19/145/39
o Cube.003
v -1.600000 0.300000 -0.400001
v 1.600000 0.300000 -0.400001
v 0.100000 0.300000 -19.600004
v -1.600000 0.300000 -17.900005
v 1.600000 0.300000 -16.400003
v 9.600000 0.300000 -19.600004
v 9.600000 0.300000 -16.400003
v 7.800000 0.300000 -18.000002
v 7.803843 0.300000 -17.960983
v 7.803843 0.300000 -18.039021
v 7.815224 0.300000 -18.076538
v 7.833706 0.300000 -18.111115
v 7.833706 0.300000 -17.888889
v 7.815224 0.300000 -17.923466
v 7.858579 0.300000 -18.141422
v 7.888886 0.300000 -18.166296
v 7.888886 0.300000 -17.833708
v 7.923463 0.300000 -18.184778
v 8.000000 0.300000 -17.800003
v 7.960982 0.300000 -18.196159
v 7.960982 0.300000 -17.803844
v 7.923463 0.300000 -17.815226
v 7.858579 0.300000 -17.858582
v 8.039018 0.300000 -17.803844
v 8.000000 0.300000 -18.200001
v 8.076537 0.300000 -17.815226
v 8.039018 0.300000 -18.196159
v 8.111115 0.300000 -17.833708
v 8.076537 0.300000 -18.184778
v 8.141421 0.300000 -17.858582
v 8.111115 0.300000 -18.166296
v 8.166294 0.300000 -17.888889
v 8.184776 0.300000 -17.923466
v 8.166294 0.300000 -18.111115
v 8.200000 0.300000 -18.000002
v 8.199852 0.300000 -18.001503
v 8.196157 0.300000 -17.960983
v 8.196157 0.300000 -18.039021
v 8.184776 0.300000 -18.076538
v 8.141421 0.300000 -18.141422
vt 0.015516 0.835330
vt 0.124345 0.726502
vt 0.134547 0.835330
vt 0.146110 0.777515
vt 0.135227 0.502043
vt 0.146110 0.454431
vt 0.135238 0.502048
vt 0.135227 0.515647
vt 0.135493 0.515516
vt 0.015516 0.726502
vt 0.124345 0.454431
vt 0.135493 0.502174
vt 0.136358 0.512624
vt 0.135748 0.515129
vt 0.136484 0.511448
vt 0.136562 0.510172
vt 0.134962 0.502174
vt 0.134707 0.502561
vt 0.135748 0.502561
vt 0.135983 0.503190
vt 0.134472 0.503190
vt 0.134265 0.504035
vt 0.136189 0.504035
vt 0.136358 0.505066
vt 0.134096 0.505066
vt 0.133971 0.506242
vt 0.136484 0.506242
vt 0.136562 0.507518
vt 0.133893 0.507518
vt 0.133867 0.508845
vt 0.136588 0.508845
vt 0.134096 0.512624
vt 0.133893 0.510172
vt 0.133971 0.511448
vt 0.136189 0.513655
vt 0.135983 0.514501
vt 0.134265 0.513655
vt 0.134472 0.514501
vt 0.134707 0.515129
vt 0.134962 0.515516
vn 0.0000 1.0000 0.0000
s off
f 100/191/45 104/192/45 103/193/45
f 102/194/45 103/193/45 104/192/45
f 134/195/45 105/196/45 135/197/45
f 104/192/45 107/198/45 109/199/45
f 100/191/45 101/200/45 104/192/45
f 134/195/45 106/201/45 105/196/45
f 137/202/45 135/197/45 105/196/45
f 105/196/45 102/194/45 115/203/45
f 102/194/45 104/192/45 110/204/45
f 105/196/45 117/205/45 119/206/45
f 106/201/45 134/195/45 136/207/45
f 106/201/45 136/207/45 132/208/45
f 138/209/45 137/202/45 105/196/45
f 133/210/45 138/209/45 105/196/45
f 106/201/45 132/208/45 131/211/45
f 106/201/45 131/211/45 129/212/45
f 139/213/45 133/210/45 105/196/45
f 130/214/45 139/213/45 105/196/45
f 106/201/45 129/212/45 127/215/45
f 106/201/45 127/215/45 125/216/45
f 128/217/45 130/214/45 105/196/45
f 126/218/45 128/217/45 105/196/45
f 106/201/45 125/216/45 123/219/45
f 106/201/45 123/219/45 118/220/45
f 124/221/45 126/218/45 105/196/45
f 119/206/45 124/221/45 105/196/45
f 104/192/45 106/201/45 116/222/45
f 106/201/45 118/220/45 120/223/45
f 106/201/45 120/223/45 121/224/45
f 117/205/45 105/196/45 115/203/45
f 115/203/45 102/194/45 114/225/45
f 106/201/45 121/224/45 116/222/45
f 114/225/45 102/194/45 111/226/45
f 111/226/45 102/194/45 110/204/45
f 104/192/45 116/222/45 122/227/45
f 104/192/45 122/227/45 112/228/45
f 104/192/45 112/228/45 113/229/45
f 104/192/45 113/229/45 108/230/45
f 109/199/45 110/204/45 104/192/45
f 104/192/45 108/230/45 107/198/45
