# Blender v3.5.1 OBJ File: 'golf3.blend'
# www.blender.org
o Cube.001_Cube.002
v -1.600000 0.300000 -0.400000
v 1.600000 0.300000 -0.400000
v 1.600000 0.300000 -10.400002
v -1.600000 0.300000 -12.000003
v 2.000000 0.300000 -10.400002
v 0.000000 0.300000 -13.600004
v 2.000000 0.300000 -13.600004
v 6.400000 0.300000 -10.400002
v 6.400000 0.300000 -13.600004
v 8.200001 0.300000 -10.400002
v 9.600000 0.300000 -12.000003
v 6.400000 0.300000 -21.600006
v 9.600000 0.300000 -21.600006
v 7.800500 0.300000 -20.000002
v 7.804333 0.300000 -19.961082
v 7.804333 0.300000 -20.038923
v 7.834122 0.300000 -20.110838
v 7.834122 0.300000 -19.889166
v 7.815686 0.300000 -19.923656
v 7.815686 0.300000 -20.076347
v 7.858932 0.300000 -20.141069
v 7.889163 0.300000 -20.165882
v 7.889163 0.300000 -19.834124
v 7.923655 0.300000 -20.184317
v 8.000000 0.300000 -19.800503
v 7.961080 0.300000 -20.195669
v 7.961080 0.300000 -19.804337
v 7.923655 0.300000 -19.815689
v 7.858932 0.300000 -19.858934
v 8.038920 0.300000 -19.804337
v 8.000000 0.300000 -20.199503
v 8.076345 0.300000 -19.815689
v 8.038920 0.300000 -20.195669
v 8.110836 0.300000 -19.834124
v 8.076345 0.300000 -20.184317
v 8.141068 0.300000 -19.858934
v 8.110836 0.300000 -20.165882
v 8.165878 0.300000 -19.889166
v 8.165878 0.300000 -20.110838
v 8.199500 0.300000 -20.000002
v 8.195666 0.300000 -19.961082
v 8.195666 0.300000 -20.038923
v 8.184314 0.300000 -19.923656
v 8.184314 0.300000 -20.076347
v 8.141068 0.300000 -20.141069
vt 0.604643 0.285526
vt 0.665861 0.323394
vt 0.669359 0.375516
vt 0.546923 0.165276
vt 0.639625 0.268734
vt 0.523310 0.116083
vt 0.581905 0.148485
vt 0.628229 0.071138
vt 0.628698 0.072222
vt 0.669359 0.106507
vt 0.633529 0.071212
vt 0.633060 0.070128
vt 0.542550 0.436385
vt 0.609890 0.296458
vt 0.522436 0.069426
vt 0.633871 0.076318
vt 0.633496 0.076627
vt 0.633020 0.076727
vt 0.627381 0.019052
vt 0.627627 0.066538
vt 0.627887 0.066032
vt 0.628738 0.065623
vt 0.628262 0.065723
vt 0.627491 0.067223
vt 0.632462 0.076613
vt 0.631843 0.076290
vt 0.627486 0.068060
vt 0.627612 0.069016
vt 0.631188 0.075770
vt 0.630520 0.075075
vt 0.627863 0.070055
vt 0.629866 0.074229
vt 0.629251 0.073266
vt 0.629296 0.065737
vt 0.634132 0.075811
vt 0.634267 0.075127
vt 0.629915 0.066060
vt 0.630571 0.066579
vt 0.634272 0.074290
vt 0.634146 0.073334
vt 0.631238 0.067276
vt 0.631892 0.068121
vt 0.632508 0.069085
vt 0.633896 0.072294
vt 0.500572 0.348930
vn 0.0000 1.0000 0.0000
s off
f 5/1/1 6/2/1 4/3/1
f 8/4/1 7/5/1 5/1/1
f 10/6/1 9/7/1 8/4/1
f 9/7/1 30/8/1 25/9/1
f 12/10/1 26/11/1 31/12/1
f 1/13/1 3/14/1 4/3/1
f 5/1/1 4/3/1 3/14/1
f 5/1/1 7/5/1 6/2/1
f 8/4/1 9/7/1 7/5/1
f 10/6/1 11/15/1 9/7/1
f 16/16/1 12/10/1 14/17/1
f 12/10/1 9/7/1 15/18/1
f 14/17/1 12/10/1 15/18/1
f 9/7/1 11/15/1 30/8/1
f 11/15/1 13/19/1 43/20/1
f 43/20/1 13/19/1 41/21/1
f 13/19/1 42/22/1 40/23/1
f 13/19/1 40/23/1 41/21/1
f 11/15/1 43/20/1 38/24/1
f 19/25/1 15/18/1 9/7/1
f 18/26/1 19/25/1 9/7/1
f 11/15/1 38/24/1 36/27/1
f 11/15/1 36/27/1 34/28/1
f 29/29/1 18/26/1 9/7/1
f 23/30/1 29/29/1 9/7/1
f 11/15/1 34/28/1 32/31/1
f 11/15/1 32/31/1 30/8/1
f 28/32/1 23/30/1 9/7/1
f 27/33/1 28/32/1 9/7/1
f 25/9/1 27/33/1 9/7/1
f 44/34/1 42/22/1 13/19/1
f 12/10/1 16/16/1 20/35/1
f 12/10/1 20/35/1 17/36/1
f 39/37/1 44/34/1 13/19/1
f 45/38/1 39/37/1 13/19/1
f 12/10/1 17/36/1 21/39/1
f 12/10/1 21/39/1 22/40/1
f 45/38/1 13/19/1 37/41/1
f 13/19/1 12/10/1 31/12/1
f 37/41/1 13/19/1 35/42/1
f 35/42/1 13/19/1 33/43/1
f 12/10/1 22/40/1 24/44/1
f 12/10/1 24/44/1 26/11/1
f 33/43/1 13/19/1 31/12/1
f 1/13/1 2/45/1 3/14/1

h 8.0 -0.2 -20.0