# Blender v3.5.1 OBJ File: 'golf.blend'
# www.blender.org
o Cube.001_Cube.003
v -1.600000 0.322774 -0.404999
v -1.600000 0.322774 -19.595009
v 1.600000 0.322774 -0.404999
v 1.600000 0.322774 -19.595009
v -0.187500 0.322774 -18.000004
v -0.183897 0.322774 -17.963425
v -0.183897 0.322774 -18.036583
v -0.173227 0.322774 -18.071758
v -0.155901 0.322774 -18.104174
v -0.155901 0.322774 -17.895836
v -0.173227 0.322774 -17.928251
v -0.132583 0.322774 -18.132587
v -0.132583 0.322774 -17.867422
v -0.104169 0.322774 -18.155905
v -0.104169 0.322774 -17.844105
v -0.071753 0.322774 -18.173231
v -0.071753 0.322774 -17.826777
v 0.000000 0.322774 -17.812504
v -0.036579 0.322774 -18.183901
v -0.036579 0.322774 -17.816107
v 0.036579 0.322774 -17.816107
v 0.000000 0.322774 -18.187504
v 0.071753 0.322774 -17.826777
v 0.036579 0.322774 -18.183901
v 0.104169 0.322774 -17.844105
v 0.071753 0.322774 -18.173231
v 0.132583 0.322774 -17.867422
v 0.132583 0.322774 -18.132587
v 0.104169 0.322774 -18.155905
v 0.155901 0.322774 -17.895836
v 0.155901 0.322774 -18.104174
v 0.173227 0.322774 -17.928251
v 0.187500 0.322774 -18.000004
v 0.183897 0.322774 -17.963425
v 0.183897 0.322774 -18.036583
v 0.173227 0.322774 -18.071758
vt 0.287025 0.983520
vt 0.379886 0.776689
vt 0.382059 0.776732
vt 0.382059 0.772277
vt 0.379886 0.772320
vt 0.287025 0.755557
vt 0.392982 0.774939
vt 0.393196 0.774505
vt 0.477093 0.755557
vt 0.477093 0.983520
vt 0.392348 0.775357
vt 0.371136 0.774939
vt 0.370922 0.774505
vt 0.391319 0.775742
vt 0.389934 0.776080
vt 0.371770 0.775357
vt 0.372799 0.775742
vt 0.388246 0.776357
vt 0.386321 0.776562
vt 0.374184 0.776080
vt 0.375872 0.776357
vt 0.384232 0.776689
vt 0.377797 0.776562
vt 0.371136 0.774070
vt 0.392982 0.774070
vt 0.392348 0.773652
vt 0.371770 0.773652
vt 0.372799 0.773267
vt 0.391319 0.773267
vt 0.389934 0.772930
vt 0.374184 0.772930
vt 0.375872 0.772653
vt 0.388246 0.772653
vt 0.386321 0.772447
vt 0.377797 0.772447
vt 0.384232 0.772320
vn 0.0000 1.0000 -0.0000
s off
f 3/1/1 21/2/1 18/3/1
f 22/4/1 24/5/1 4/6/1
f 6/7/1 5/8/1 2/9/1
f 2/9/1 1/10/1 6/7/1
f 1/10/1 3/1/1 18/3/1
f 6/7/1 1/10/1 11/11/1
f 3/1/1 4/6/1 34/12/1
f 4/6/1 33/13/1 34/12/1
f 11/11/1 1/10/1 10/14/1
f 10/14/1 1/10/1 13/15/1
f 3/1/1 34/12/1 32/16/1
f 3/1/1 32/16/1 30/17/1
f 13/15/1 1/10/1 15/18/1
f 15/18/1 1/10/1 17/19/1
f 3/1/1 30/17/1 27/20/1
f 3/1/1 27/20/1 25/21/1
f 17/19/1 1/10/1 20/22/1
f 20/22/1 1/10/1 18/3/1
f 3/1/1 25/21/1 23/23/1
f 3/1/1 23/23/1 21/2/1
f 35/24/1 33/13/1 4/6/1
f 2/9/1 5/8/1 7/25/1
f 2/9/1 7/25/1 8/26/1
f 36/27/1 35/24/1 4/6/1
f 31/28/1 36/27/1 4/6/1
f 2/9/1 8/26/1 9/29/1
f 2/9/1 9/29/1 12/30/1
f 28/31/1 31/28/1 4/6/1
f 29/32/1 28/31/1 4/6/1
f 4/6/1 2/9/1 22/4/1
f 2/9/1 12/30/1 14/33/1
f 2/9/1 14/33/1 16/34/1
f 26/35/1 29/32/1 4/6/1
f 24/5/1 26/35/1 4/6/1
f 2/9/1 16/34/1 19/36/1
f 2/9/1 19/36/1 22/4/1

h -0.0 -0.2 -18.0