# Blender v3.1.2 OBJ File: 'golf6.blend'
# www.blender.org
o Cube.002_Cube.018
v 2.000000 0.285000 -8.000000
v 2.000000 0.285000 -11.600000
v 6.000000 0.285000 -8.000000
v 6.000000 0.285000 -11.600000
v 1.600000 2.300000 -4.000000
v 1.600000 0.285000 -8.000000
v 1.600000 0.285000 -11.600000
v 1.600000 2.300000 -0.400000
v -1.640000 2.300000 -4.000000
v -1.640000 2.300000 -0.400000
v -1.640000 0.285000 -8.000000
v 2.000000 2.300000 -7.600000
v 2.000000 2.300000 -7.600000
v 6.000000 0.285000 -7.600000
v 1.600000 2.300000 -7.600000
v -1.640000 2.300000 -7.600000
v 2.000000 2.300000 -4.360000
v 2.000000 2.300000 -4.360000
v 6.000000 0.285000 -4.360000
v 1.600000 2.300000 -4.360000
v -1.640000 2.300000 -4.360000
v 9.600000 0.285000 -8.000000
v 9.600000 0.285000 -7.600000
v 9.600000 0.285000 -4.360000
v 6.000000 0.285000 -11.600000
v 9.600000 0.285000 -11.600000
v 1.600000 0.285000 -11.600000
v -1.640000 0.285000 -11.600000
v -0.001249 0.285000 -9.799953
v 0.075288 0.285000 -9.815176
v 0.109865 0.285000 -9.833658
v 0.037769 0.285000 -9.803795
v 0.198751 0.285000 -9.999952
v 0.165045 0.285000 -9.888838
v 0.183527 0.285000 -9.923415
v 0.194908 0.285000 -9.960935
v 0.140172 0.285000 -9.858531
v -0.197406 0.285000 -9.960935
v -0.201249 0.285000 -9.999952
v -0.186025 0.285000 -9.923415
v -0.197406 0.285000 -10.038970
v -0.186025 0.285000 -10.076489
v -0.112363 0.285000 -9.833658
v -0.112363 0.285000 -10.166246
v -0.142670 0.285000 -9.858531
v -0.167543 0.285000 -9.888838
v -0.167543 0.285000 -10.111066
v -0.142670 0.285000 -10.141374
v 0.037769 0.285000 -10.196110
v -0.001249 0.285000 -10.199952
v -0.040267 0.285000 -9.803795
v -0.040267 0.285000 -10.196110
v 0.109865 0.285000 -10.166246
v 0.194908 0.285000 -10.038970
v 0.183527 0.285000 -10.076489
v 0.165045 0.285000 -10.111067
v 0.140172 0.285000 -10.141374
v 0.075288 0.285000 -10.184729
v -0.077786 0.285000 -9.815176
v -0.077786 0.285000 -10.184729
v -0.125947 2.300000 -5.845231
v -0.045753 2.300000 -5.806613
v -0.088026 2.300000 -5.821404
v 0.043255 2.300000 -5.806613
v 0.085528 2.300000 -5.821404
v -0.001249 2.300000 -5.801600
v 0.123449 2.300000 -5.845231
v 0.155118 2.300000 -6.126283
v 0.198751 2.300000 -6.001590
v 0.193737 2.300000 -5.957088
v 0.193737 2.300000 -6.046093
v 0.155117 2.300000 -5.876898
v 0.178945 2.300000 -5.914818
v 0.178945 2.300000 -6.088363
v -0.201249 2.300000 -6.001591
v -0.196234 2.300000 -5.957088
v -0.196234 2.300000 -6.046093
v -0.157615 2.300000 -5.876898
v -0.181443 2.300000 -5.914818
v -0.181443 2.300000 -6.088364
v -0.157615 2.300000 -6.126283
v -0.045753 2.300000 -6.196567
v -0.088025 2.300000 -6.181776
v 0.043256 2.300000 -6.196567
v 0.123449 2.300000 -6.157950
v 0.085528 2.300000 -6.181776
v -0.001249 2.300000 -6.201581
v -0.125947 2.300000 -6.157950
vt 0.078733 0.450547
vt 0.143732 0.580490
vt 0.078733 0.580490
vt 0.078733 0.463541
vt 0.143732 0.450547
vt 0.150232 0.580490
vt 0.150232 0.450547
vt 0.721287 0.254131
vt 0.773937 0.137182
vt 0.773937 0.254131
vt 0.773937 0.020234
vt 0.748030 0.065825
vt 0.747307 0.065662
vt 0.721287 0.125487
vt 0.746584 0.078493
vt 0.747307 0.078656
vt 0.714787 0.125487
vt 0.721287 0.020234
vt 0.721287 0.137182
vt 0.773937 0.125487
vt 0.360748 0.676786
vt 0.255699 0.799544
vt 0.255699 0.674040
vt 0.078733 0.698738
vt 0.020234 0.593484
vt 0.078733 0.593484
vt 0.020234 0.580490
vt 0.202881 0.463541
vt 0.176886 0.509148
vt 0.176252 0.509023
vt 0.176252 0.522017
vt 0.176886 0.521893
vt 0.202881 0.580490
vt 0.150232 0.463541
vt 0.746584 0.065825
vt 0.748717 0.066306
vt 0.745897 0.066306
vt 0.745281 0.067080
vt 0.749334 0.067080
vt 0.749848 0.068109
vt 0.744766 0.068109
vt 0.744379 0.069341
vt 0.750235 0.069341
vt 0.750557 0.072159
vt 0.750476 0.070714
vt 0.744057 0.072159
vt 0.744139 0.070714
vt 0.744139 0.073605
vt 0.750476 0.073605
vt 0.750235 0.074978
vt 0.744379 0.074978
vt 0.744766 0.076210
vt 0.749848 0.076210
vt 0.749334 0.077239
vt 0.745281 0.077239
vt 0.745897 0.078012
vt 0.748717 0.078012
vt 0.748030 0.078493
vt 0.714787 0.020234
vt 0.360748 0.802289
vt 0.020234 0.698738
vt 0.020234 0.463541
vt 0.175618 0.509148
vt 0.177495 0.509518
vt 0.175008 0.509518
vt 0.174446 0.510118
vt 0.178057 0.510118
vt 0.178550 0.510925
vt 0.173954 0.510925
vt 0.173550 0.511910
vt 0.178954 0.511910
vt 0.179255 0.513034
vt 0.173064 0.516788
vt 0.173249 0.513034
vt 0.173064 0.514253
vt 0.179439 0.514253
vt 0.179439 0.516788
vt 0.179502 0.515520
vt 0.173002 0.515520
vt 0.173249 0.518006
vt 0.179255 0.518006
vt 0.178954 0.519130
vt 0.173550 0.519130
vt 0.173954 0.520114
vt 0.178550 0.520114
vt 0.178057 0.520922
vt 0.174446 0.520922
vt 0.175008 0.521523
vt 0.177495 0.521523
vt 0.175618 0.521893
vn 0.0000 1.0000 0.0000
vn 0.0000 0.0000 1.0000
vn 0.4499 0.8931 0.0000
s off
f 4/1/1 1/2/1 3/3/1
f 3/3/2 25/4/2 4/1/2
f 4/1/1 2/5/1 1/2/1
f 6/6/1 2/5/1 7/7/1
f 8/8/1 9/9/1 10/10/1
f 16/11/1 82/12/1 87/13/1
f 20/14/1 64/15/1 66/16/1
f 17/17/1 15/18/1 20/14/1
f 5/19/1 21/20/1 9/9/1
f 18/21/3 14/22/3 13/23/3
f 19/24/1 23/25/1 14/26/1
f 14/26/1 22/27/1 3/3/1
f 22/27/1 25/4/1 3/3/1
f 28/28/1 52/29/1 50/30/1
f 29/31/1 51/32/1 11/33/1
f 7/7/2 27/34/2 6/6/2
f 6/6/1 1/2/1 2/5/1
f 8/8/1 5/19/1 9/9/1
f 87/13/1 84/35/1 15/18/1
f 15/18/1 16/11/1 87/13/1
f 83/36/1 82/12/1 16/11/1
f 15/18/1 84/35/1 86/37/1
f 15/18/1 86/37/1 85/38/1
f 88/39/1 83/36/1 16/11/1
f 81/40/1 88/39/1 16/11/1
f 15/18/1 85/38/1 68/41/1
f 15/18/1 68/41/1 74/42/1
f 81/40/1 16/11/1 80/43/1
f 16/11/1 21/20/1 75/44/1
f 80/43/1 16/11/1 77/45/1
f 77/45/1 16/11/1 75/44/1
f 20/14/1 15/18/1 69/46/1
f 15/18/1 74/42/1 71/47/1
f 15/18/1 71/47/1 69/46/1
f 20/14/1 69/46/1 70/48/1
f 76/49/1 75/44/1 21/20/1
f 79/50/1 76/49/1 21/20/1
f 20/14/1 70/48/1 73/51/1
f 20/14/1 73/51/1 72/52/1
f 78/53/1 79/50/1 21/20/1
f 61/54/1 78/53/1 21/20/1
f 20/14/1 72/52/1 67/55/1
f 20/14/1 67/55/1 65/56/1
f 61/54/1 21/20/1 63/57/1
f 21/20/1 20/14/1 66/16/1
f 63/57/1 21/20/1 62/58/1
f 62/58/1 21/20/1 66/16/1
f 20/14/1 65/56/1 64/15/1
f 17/17/1 12/59/1 15/18/1
f 5/19/1 20/14/1 21/20/1
f 18/21/3 19/60/3 14/22/3
f 19/24/1 24/61/1 23/25/1
f 14/26/1 23/25/1 22/27/1
f 22/27/1 26/62/1 25/4/1
f 50/30/1 49/63/1 27/34/1
f 27/34/1 28/28/1 50/30/1
f 60/64/1 52/29/1 28/28/1
f 27/34/1 49/63/1 58/65/1
f 27/34/1 58/65/1 53/66/1
f 44/67/1 60/64/1 28/28/1
f 48/68/1 44/67/1 28/28/1
f 27/34/1 53/66/1 57/69/1
f 27/34/1 57/69/1 56/70/1
f 47/71/1 48/68/1 28/28/1
f 42/72/1 47/71/1 28/28/1
f 6/6/1 27/34/1 36/73/1
f 27/34/1 56/70/1 55/74/1
f 27/34/1 55/74/1 54/75/1
f 42/72/1 28/28/1 41/76/1
f 28/28/1 11/33/1 38/77/1
f 41/76/1 28/28/1 39/78/1
f 39/78/1 28/28/1 38/77/1
f 27/34/1 54/75/1 33/79/1
f 27/34/1 33/79/1 36/73/1
f 6/6/1 36/73/1 35/80/1
f 40/81/1 38/77/1 11/33/1
f 46/82/1 40/81/1 11/33/1
f 6/6/1 35/80/1 34/83/1
f 6/6/1 34/83/1 37/84/1
f 45/85/1 46/82/1 11/33/1
f 43/86/1 45/85/1 11/33/1
f 11/33/1 6/6/1 29/31/1
f 6/6/1 37/84/1 31/87/1
f 6/6/1 31/87/1 30/88/1
f 59/89/1 43/86/1 11/33/1
f 51/32/1 59/89/1 11/33/1
f 6/6/1 30/88/1 32/90/1
f 6/6/1 32/90/1 29/31/1

h 0.0 -0.2 -10.0