# Blender v3.5.1 OBJ File: 'golf4.blend'
# www.blender.org
o Cube.004_Cube.005
v -1.646525 0.300000 -0.400000
v -1.683356 0.300000 -4.890387
v 1.618383 0.300000 -0.400000
v 1.657395 0.300000 -4.890387
v -1.683356 0.300000 -15.109613
v 1.657395 0.300000 -15.109613
v 1.809774 0.300000 -5.490294
v 2.001547 0.300000 -6.179358
v 2.283608 0.300000 -6.950446
v 2.498061 0.300000 -8.024050
v 2.600000 0.300000 -9.318182
v 2.600000 0.300000 -10.681819
v 2.498061 0.300000 -11.975952
v 2.283607 0.300000 -13.049555
v 2.001547 0.300000 -13.820643
v 1.809774 0.300000 -14.509707
v -1.828864 0.300000 -5.490294
v -2.007358 0.300000 -6.179358
v -2.283608 0.300000 -6.950446
v -2.498061 0.300000 -8.024050
v -2.600000 0.300000 -9.318182
v -2.600000 0.300000 -10.681819
v -2.498061 0.300000 -11.975952
v -2.283607 0.300000 -13.049555
v -2.007358 0.300000 -13.820643
v -1.828864 0.300000 -14.509707
v -1.683356 0.300000 -19.709614
v 1.657395 0.300000 -19.709614
v -0.200000 0.300000 -18.000000
v -0.196157 0.300000 -17.960981
v -0.196157 0.300000 -18.039019
v -0.166294 0.300000 -17.888885
v -0.184776 0.300000 -17.923464
v -0.184776 0.300000 -18.076536
v -0.166294 0.300000 -18.111115
v -0.111114 0.300000 -17.833706
v -0.111114 0.300000 -18.166294
v -0.039018 0.300000 -17.803843
v -0.039018 0.300000 -18.196157
v -0.076537 0.300000 -17.815224
v -0.076537 0.300000 -18.184776
v -0.141421 0.300000 -18.141422
v 0.039018 0.300000 -17.803843
v 0.039018 0.300000 -18.196157
v 0.111114 0.300000 -17.833706
v 0.111114 0.300000 -18.166294
v 0.076537 0.300000 -17.815224
v 0.076537 0.300000 -18.184776
v 0.200000 0.300000 -18.000000
v 0.196157 0.300000 -17.960981
v 0.196157 0.300000 -18.039019
v 0.166294 0.300000 -17.888885
v 0.184776 0.300000 -17.923464
v 0.184776 0.300000 -18.076536
v 0.166294 0.300000 -18.111115
v 0.141421 0.300000 -17.858578
v 0.141421 0.300000 -18.141422
v 0.000000 0.300000 -18.200001
v -0.141421 0.300000 -17.858578
v -0.000000 0.300000 -17.799999
vt 0.444126 0.674124
vt 0.370875 0.873367
vt 0.370009 0.674124
vt 0.370009 0.220682
vt 0.447355 0.247301
vt 0.366629 0.247301
vt 0.447354 0.647505
vt 0.366629 0.647505
vt 0.451314 0.616930
vt 0.457443 0.582716
vt 0.362374 0.616930
vt 0.356116 0.582716
vt 0.351359 0.535078
vt 0.462201 0.535078
vt 0.349097 0.477655
vt 0.349097 0.417149
vt 0.464463 0.477655
vt 0.351359 0.359728
vt 0.464463 0.417149
vt 0.462201 0.359728
vt 0.356116 0.312090
vt 0.457443 0.312090
vt 0.362374 0.277876
vt 0.451315 0.277876
vt 0.405914 0.101135
vt 0.406780 0.101305
vt 0.444126 0.016573
vt 0.407646 0.083729
vt 0.406780 0.083557
vt 0.443309 0.873367
vt 0.444126 0.220682
vt 0.408478 0.084232
vt 0.411132 0.094164
vt 0.409917 0.098707
vt 0.409245 0.099810
vt 0.370009 0.016573
vt 0.405914 0.083729
vt 0.405082 0.084232
vt 0.404315 0.085052
vt 0.409245 0.085052
vt 0.409917 0.086157
vt 0.403642 0.086157
vt 0.403091 0.087502
vt 0.410469 0.087502
vt 0.410879 0.089035
vt 0.402681 0.089035
vt 0.402428 0.090700
vt 0.411132 0.090700
vt 0.411217 0.092432
vt 0.402428 0.094164
vt 0.402343 0.092432
vt 0.410879 0.095827
vt 0.402681 0.095827
vt 0.410469 0.097363
vt 0.403091 0.097363
vt 0.403642 0.098707
vt 0.408478 0.100630
vt 0.407646 0.101135
vt 0.404315 0.099810
vt 0.405082 0.100630
vn 0.0000 1.0000 0.0000
g Cube.004_Cube.005_Material.002
s off
f 2/1/1 3/2/1 4/3/1
f 6/4/1 26/5/1 16/6/1
f 4/3/1 17/7/1 2/1/1
f 7/8/1 18/9/1 17/7/1
f 19/10/1 8/11/1 9/12/1
f 19/10/1 10/13/1 20/14/1
f 11/15/1 20/14/1 10/13/1
f 12/16/1 21/17/1 11/15/1
f 13/18/1 22/19/1 12/16/1
f 23/20/1 14/21/1 24/22/1
f 24/22/1 15/23/1 25/24/1
f 16/6/1 25/24/1 15/23/1
f 6/4/1 43/25/1 60/26/1
f 27/27/1 39/28/1 58/29/1
f 2/1/1 1/30/1 3/2/1
f 6/4/1 5/31/1 26/5/1
f 4/3/1 7/8/1 17/7/1
f 7/8/1 8/11/1 18/9/1
f 19/10/1 18/9/1 8/11/1
f 19/10/1 9/12/1 10/13/1
f 11/15/1 21/17/1 20/14/1
f 12/16/1 22/19/1 21/17/1
f 13/18/1 23/20/1 22/19/1
f 23/20/1 13/18/1 14/21/1
f 24/22/1 14/21/1 15/23/1
f 16/6/1 26/5/1 25/24/1
f 41/32/1 39/28/1 27/27/1
f 27/27/1 5/31/1 30/33/1
f 5/31/1 6/4/1 60/26/1
f 59/34/1 5/31/1 36/35/1
f 28/36/1 44/37/1 48/38/1
f 28/36/1 48/38/1 46/39/1
f 37/40/1 41/32/1 27/27/1
f 42/41/1 37/40/1 27/27/1
f 28/36/1 46/39/1 57/42/1
f 28/36/1 57/42/1 55/43/1
f 35/44/1 42/41/1 27/27/1
f 34/45/1 35/44/1 27/27/1
f 28/36/1 55/43/1 54/46/1
f 28/36/1 54/46/1 51/47/1
f 31/48/1 34/45/1 27/27/1
f 29/49/1 31/48/1 27/27/1
f 6/4/1 28/36/1 50/50/1
f 28/36/1 51/47/1 49/51/1
f 28/36/1 49/51/1 50/50/1
f 30/33/1 29/49/1 27/27/1
f 33/52/1 30/33/1 5/31/1
f 6/4/1 50/50/1 53/53/1
f 32/54/1 33/52/1 5/31/1
f 59/34/1 32/54/1 5/31/1
f 6/4/1 53/53/1 52/55/1
f 6/4/1 52/55/1 56/56/1
f 36/35/1 5/31/1 40/57/1
f 40/57/1 5/31/1 38/58/1
f 6/4/1 56/56/1 45/59/1
f 6/4/1 45/59/1 47/60/1
f 38/58/1 5/31/1 60/26/1
f 6/4/1 47/60/1 43/25/1
f 58/29/1 44/37/1 28/36/1
f 28/36/1 27/27/1 58/29/1

h 0.0 -0.19 -18.0