# Blender 3.5.1
# www.blender.org
mtllib golf8.mtl
o Cube.001
v -1.999998 0.600000 0.000000
v 20.000000 -0.220000 -8.200006
v -1.999998 -0.500000 0.000000
v -1.599998 0.300000 -0.400000
v 20.039019 -0.220000 -8.196164
v -2.000000 0.600000 -10.000000
v 20.076536 -0.220000 -8.184783
v -1.600000 0.300000 -6.400000
v -2.000000 -0.500000 -10.000000
v 20.111115 -0.220000 -8.166301
v 2.000001 0.600000 0.000000
v 1.600002 0.300000 -0.400000
v 20.141422 -0.220000 -8.141428
v 2.000001 -0.500000 0.000000
v 2.000000 0.600000 -10.000000
v 20.166294 -0.220000 -8.111121
v 1.600000 0.300000 -9.600000
v 2.000000 -0.500000 -10.000000
v 1.600001 0.300000 -6.400001
v 20.184776 -0.220000 -8.076544
v 2.000001 -0.500000 -6.000000
v -1.999999 0.600000 -6.000000
v 20.196157 -0.220000 -8.039025
v 2.000001 0.600000 -6.000000
v 20.200001 -0.220000 -8.000007
v -1.599999 0.300000 -6.400000
v -1.999999 -0.500000 -6.000000
v 2.000000 0.300000 -6.400001
v 20.196157 -0.220000 -7.960989
v 2.000000 0.300000 -9.600000
v 8.000002 -0.500000 -0.000001
v 20.184776 -0.220000 -7.923470
v 8.000002 0.300000 -0.400001
v 8.000001 -0.500000 -4.000001
v 20.166294 -0.220000 -7.888893
v 8.000001 0.300000 -3.600001
v 8.000001 0.600000 -4.000001
v 20.141422 -0.220000 -7.858585
v 8.000002 0.600000 -0.000001
v 20.111115 -0.220000 -7.833713
v 14.000001 0.300000 -6.400002
v 14.000001 -0.500000 -6.000002
v 14.000000 -0.500000 -10.000002
v 20.076536 -0.220000 -7.815231
v 14.000000 0.300000 -9.600002
v 14.000000 0.600000 -10.000002
v 20.039019 -0.220000 -7.803850
v 14.000001 0.600000 -6.000002
v 20.000000 -0.220000 -7.800007
v 22.000000 -0.500000 -6.000003
v 21.600000 0.300000 -6.400003
v 19.960981 -0.220000 -7.803850
v 22.000000 -0.500000 -10.000003
v 21.600000 0.300000 -9.600003
v 19.923464 -0.220000 -7.815231
v 22.000000 0.600000 -10.000003
v 22.000000 0.600000 -6.000003
v 19.888885 -0.220000 -7.833713
v 2.000000 0.600000 -9.600000
v 2.000000 0.600000 -9.600000
v 2.000000 0.600000 -6.400001
v 19.858578 -0.220000 -7.858585
v -1.599999 0.600000 -6.000000
v -1.599999 0.600000 -6.400000
v 19.833706 -0.220000 -7.888893
v 1.600001 0.600000 -6.400001
v 19.815224 -0.220000 -7.923470
v 1.600001 0.600000 -6.000000
v 1.600000 0.600000 -9.600000
v -1.600000 0.600000 -6.400000
v 19.803843 -0.220000 -7.960989
v -1.599998 0.600000 -0.400000
v 19.799999 -0.220000 -8.000007
v 1.600002 0.600000 -0.400000
v 8.000001 0.600000 -3.600001
v 8.000002 0.600000 -0.400001
v 19.803843 -0.220000 -8.039024
v 14.000000 0.600000 -9.600002
v 14.000001 0.600000 -6.400002
v 19.815224 -0.220000 -8.076544
v 21.600000 0.600000 -9.600003
v 21.600000 0.600000 -6.400003
v 19.833706 -0.220000 -8.111121
v 19.858578 -0.220000 -8.141428
v 19.888885 -0.220000 -8.166301
v 19.923464 -0.220000 -8.184783
v 19.960981 -0.220000 -8.196164
v 20.200001 0.300000 -8.000007
v 20.196157 0.300000 -8.039025
v 20.196157 0.300000 -7.960989
v 20.166294 0.300000 -8.111121
v 20.184776 0.300000 -7.923470
v 20.184776 0.300000 -8.076544
v 20.166294 0.300000 -7.888893
v 20.111115 0.300000 -8.166301
v 20.141422 0.300000 -7.858585
v 20.039019 0.300000 -7.803850
v 20.039019 0.300000 -8.196164
v 20.076536 0.300000 -7.815231
v 20.076536 0.300000 -8.184783
v 20.111115 0.300000 -7.833713
v 20.141422 0.300000 -8.141428
v 19.960981 0.300000 -8.196164
v 19.960981 0.300000 -7.803850
v 19.888885 0.300000 -8.166301
v 19.888885 0.300000 -7.833713
v 19.923464 0.300000 -8.184783
v 19.923464 0.300000 -7.815231
v 19.833706 0.300000 -8.111121
v 19.833706 0.300000 -7.888893
v 19.799999 0.300000 -8.000007
v 19.803843 0.300000 -7.960989
v 19.803843 0.300000 -8.039024
v 19.815224 0.300000 -7.923470
v 19.815224 0.300000 -8.076544
v 19.858578 0.300000 -7.858585
v 19.858578 0.300000 -8.141428
v 20.000000 0.300000 -8.200006
v 20.000000 0.300000 -7.800007
vn -0.0000 1.0000 -0.0000
vn -0.0000 -0.0000 -1.0000
vn 1.0000 -0.0000 -0.0000
vn -0.0000 -1.0000 -0.0000
vn -1.0000 -0.0000 -0.0000
vn -0.0000 -0.0000 1.0000
vn 0.7071 -0.0000 0.7071
vn -0.7071 -0.0000 0.7071
vn 0.7071 -0.0000 -0.7071
vn -0.7071 -0.0000 -0.7071
vn -0.5145 -0.0000 -0.8575
vn -0.0980 -0.0000 0.9952
vn -0.2903 -0.0000 0.9569
vn -0.4714 -0.0000 0.8819
vn -0.6344 -0.0000 0.7730
vn -0.7730 -0.0000 0.6344
vn -0.8819 -0.0000 0.4714
vn -0.9569 -0.0000 0.2903
vn -0.9952 -0.0000 0.0980
vn -0.9952 -0.0000 -0.0980
vn -0.9569 -0.0000 -0.2903
vn -0.8819 -0.0000 -0.4714
vn -0.7731 -0.0000 -0.6343
vn -0.6344 -0.0000 -0.7730
vn -0.4714 -0.0000 -0.8819
vn -0.2903 -0.0000 -0.9569
vn -0.0980 -0.0000 -0.9952
vn 0.0980 -0.0000 -0.9952
vn 0.2903 -0.0000 -0.9569
vn 0.4714 -0.0000 -0.8819
vn 0.6344 -0.0000 -0.7730
vn 0.7730 -0.0000 -0.6344
vn 0.8819 -0.0000 -0.4714
vn 0.9569 -0.0000 -0.2903
vn 0.9952 -0.0000 -0.0980
vn 0.9952 -0.0000 0.0980
vn 0.9569 -0.0000 0.2903
vn 0.8819 -0.0000 0.4714
vn 0.7731 -0.0000 0.6343
vn 0.6344 -0.0000 0.7730
vn 0.4714 -0.0000 0.8819
vn 0.2903 -0.0000 0.9569
vn 0.0980 -0.0000 0.9952
vn -0.0499 0.9988 -0.0000
vn -0.2873 -0.0000 -0.9578
vn -0.2873 -0.0000 0.9578
vn -0.7731 -0.0000 0.6343
vn -0.7730 -0.0000 -0.6344
vn 0.7731 -0.0000 -0.6343
vn 0.7730 -0.0000 0.6344
vt 0.238682 0.793706
vt 0.781388 0.692203
vt 0.602684 0.014398
vt 0.416231 0.714582
vt 0.573833 0.714582
vt 0.494914 0.725504
vt 0.750616 0.692203
vt 0.207910 0.793706
vt 0.294143 0.685786
vt 0.350247 0.799980
vt 0.179114 0.714582
vt 0.417029 0.714582
vt 0.495989 0.725718
vt 0.322939 0.014398
vt 0.051586 0.821329
vt 0.781388 0.903244
vt 0.417958 0.714582
vt 0.497086 0.725718
vt 0.275871 0.714582
vt 0.602629 0.714582
vt 0.082358 0.821329
vt 0.014398 0.685786
vt 0.750616 0.903244
vt 0.418983 0.714582
vt 0.498162 0.725504
vt 0.810184 0.692203
vt 0.238682 0.714582
vt 0.602684 0.126296
vt 0.313059 0.841207
vt 0.350247 0.714582
vt 0.420065 0.714582
vt 0.499175 0.725084
vt 0.207910 0.714582
vt 0.294143 0.573888
vt 0.840956 0.692203
vt 0.051586 0.714582
vt 0.322939 0.126296
vt 0.691048 0.912353
vt 0.421161 0.714582
vt 0.500087 0.724475
vt 0.275871 0.841181
vt 0.721820 0.912353
vt 0.082358 0.714582
vt 0.014398 0.573888
vt 0.313059 0.714582
vt 0.499362 0.765189
vt 0.422230 0.714582
vt 0.500863 0.723700
vt 0.840956 0.846660
vt 0.126296 0.573888
vt 0.662252 0.692203
vt 0.781388 0.818828
vt 0.434837 0.014398
vt 0.423231 0.714582
vt 0.501472 0.722788
vt 0.631480 0.692203
vt 0.810184 0.846660
vt 0.434837 0.126296
vt 0.424125 0.714582
vt 0.501892 0.721774
vt 0.602629 0.714582
vt 0.179114 0.869040
vt 0.750616 0.818828
vt 0.126296 0.685786
vt 0.499362 0.754514
vt 0.022790 0.934732
vt 0.424878 0.714582
vt 0.453674 0.714582
vt 0.502106 0.720699
vt 0.275871 0.849093
vt 0.878144 0.692203
vt 0.294143 0.406041
vt 0.948414 0.467148
vt 0.662252 0.929004
vt 0.454292 0.714582
vt 0.502106 0.719602
vt 0.022790 0.714582
vt 0.985602 0.427677
vt 0.948414 0.438352
vt 0.721820 0.692203
vt 0.182245 0.406041
vt 0.455076 0.714582
vt 0.501892 0.718526
vt 0.985602 0.456473
vt 0.878144 0.929004
vt 0.691048 0.692203
vt 0.917642 0.438352
vt 0.490786 0.294143
vt 0.455993 0.714582
vt 0.501472 0.717513
vt 0.917642 0.467148
vt 0.631480 0.929004
vt 0.602684 0.294143
vt 0.457011 0.714582
vt 0.500863 0.716601
vt 0.985602 0.217218
vt 0.126296 0.238194
vt 0.948414 0.704519
vt 0.948414 0.227892
vt 0.014398 0.238194
vt 0.458089 0.714582
vt 0.500087 0.715825
vt 0.985602 0.693845
vt 0.322939 0.461990
vt 0.917642 0.227892
vt 0.459186 0.714582
vt 0.499175 0.715216
vt 0.917642 0.704519
vt 0.434837 0.461990
vt 0.460259 0.714582
vt 0.498162 0.714796
vt 0.141926 0.714582
vt 0.126296 0.014398
vt 0.948414 0.862767
vt 0.387435 0.782116
vt 0.985602 0.014398
vt 0.461268 0.714582
vt 0.497086 0.714582
vt 0.141926 0.817554
vt 0.014398 0.014398
vt 0.948414 0.014398
vt 0.387435 0.714582
vt 0.985602 0.844180
vt 0.462174 0.714582
vt 0.530902 0.714582
vt 0.495989 0.714582
vt 0.322939 0.685786
vt 0.111154 0.817554
vt 0.917642 0.014398
vt 0.434837 0.685786
vt 0.111154 0.714582
vt 0.917642 0.862767
vt 0.531756 0.714582
vt 0.494914 0.714796
vt 0.334129 0.126296
vt 0.869752 0.692203
vt 0.334129 0.126296
vt 0.267478 0.849093
vt 0.869752 0.692203
vt 0.490970 0.754514
vt 0.423647 0.126296
vt 0.014398 0.934732
vt 0.532728 0.714582
vt 0.493900 0.715216
vt 0.434837 0.025588
vt 0.170722 0.858743
vt 0.423647 0.025588
vt 0.602629 0.722975
vt 0.170722 0.869040
vt 0.533781 0.714582
vt 0.492988 0.715825
vt 0.423647 0.115106
vt 0.304667 0.714582
vt 0.490970 0.765189
vt 0.534873 0.714582
vt 0.492213 0.716601
vt 0.434837 0.115106
vt 0.304667 0.723024
vt 0.334129 0.115106
vt 0.267478 0.841181
vt 0.423647 0.025588
vt 0.267478 0.714582
vt 0.602629 0.722975
vt 0.535964 0.714582
vt 0.491603 0.717513
vt 0.591494 0.025588
vt 0.341855 0.799980
vt 0.170722 0.714582
vt 0.537010 0.714582
vt 0.491184 0.718526
vt 0.341855 0.714582
vt 0.591494 0.115106
vt 0.304667 0.841207
vt 0.501976 0.294143
vt 0.869752 0.929004
vt 0.977210 0.456473
vt 0.591494 0.294143
vt 0.977210 0.427677
vt 0.014398 0.714582
vt 0.566768 0.714582
vt 0.537973 0.714582
vt 0.490970 0.719602
vt 0.334129 0.461990
vt 0.977210 0.693845
vt 0.423647 0.461990
vt 0.977210 0.217218
vt 0.567736 0.714582
vt 0.490970 0.720699
vt 0.379043 0.714582
vt 0.334129 0.674596
vt 0.977210 0.844180
vt 0.977210 0.014398
vt 0.423647 0.674596
vt 0.379043 0.782116
vt 0.568785 0.714582
vt 0.491184 0.721774
vt 0.569877 0.714582
vt 0.491603 0.722788
vt 0.570968 0.714582
vt 0.492213 0.723700
vt 0.572018 0.714582
vt 0.492988 0.724475
vt 0.572985 0.714582
vt 0.493900 0.725084
vt 0.424125 0.729129
vt 0.423231 0.729129
vt 0.453674 0.729129
vt 0.424878 0.729129
vt 0.421161 0.729129
vt 0.454292 0.729129
vt 0.422230 0.729129
vt 0.455076 0.729129
vt 0.418983 0.729129
vt 0.455993 0.729129
vt 0.459186 0.729129
vt 0.417029 0.729129
vt 0.458089 0.729129
vt 0.417958 0.729129
vt 0.457011 0.729129
vt 0.420065 0.729129
vt 0.572985 0.729129
vt 0.461268 0.729129
vt 0.570968 0.729129
vt 0.531756 0.729129
vt 0.572018 0.729129
vt 0.530902 0.729129
vt 0.462174 0.729129
vt 0.568785 0.729129
vt 0.533781 0.729129
vt 0.537010 0.729129
vt 0.535964 0.729129
vt 0.537973 0.729129
vt 0.566768 0.729129
vt 0.534873 0.729129
vt 0.567736 0.729129
vt 0.532728 0.729129
vt 0.569877 0.729129
vt 0.416231 0.729129
vt 0.573833 0.729129
vt 0.460259 0.729129
s 0
usemtl Material.001
f 6/14/1 70/161/1 69/159/1
f 61/141/1 68/157/1 24/58/1
f 6/15/2 18/43/2 9/21/2
f 24/57/3 14/35/3 21/49/3
f 27/64/4 18/44/4 21/50/4
f 22/52/5 9/23/5 27/63/5
f 11/27/6 3/8/6 14/33/6
f 1/2/5 27/63/5 3/7/5
f 3/9/4 21/50/4 14/34/4
f 1/3/1 11/28/1 72/166/1
f 24/58/1 76/177/1 61/141/1
f 37/88/1 59/135/1 75/174/1
f 31/73/7 48/108/7 39/91/7
f 21/50/4 34/81/4 31/72/4
f 21/51/8 39/92/8 24/56/8
f 15/38/9 34/80/9 18/42/9
f 37/87/10 43/99/10 34/79/10
f 76/177/1 48/109/1 79/185/1
f 78/183/1 37/88/1 75/174/1
f 34/81/4 42/97/4 31/72/4
f 82/193/1 57/130/1 56/127/1
f 56/128/3 50/112/3 53/119/3
f 43/100/4 50/113/4 42/97/4
f 42/98/6 57/132/6 48/108/6
f 46/105/2 53/121/2 43/99/2
f 17/41/7 70/162/7 8/19/7
f 68/158/5 19/45/5 74/173/5
f 8/20/11 64/148/11 26/61/11
f 12/30/2 72/167/2 74/171/2
f 4/11/3 64/149/3 63/146/3
f 28/65/2 66/154/2 61/140/2
f 30/70/6 69/160/6 17/41/6
f 41/96/10 76/178/10 79/186/10
f 28/66/9 76/179/9 33/77/9
f 59/136/8 30/71/8 75/175/8
f 45/103/7 75/176/7 36/84/7
f 54/122/5 82/194/5 81/189/5
f 51/116/2 79/186/2 82/192/2
f 54/123/6 78/184/6 45/103/6
f 60/137/1 59/135/1 15/37/1
f 6/14/1 22/53/1 63/145/1
f 63/145/44 64/147/44 70/161/44
f 69/159/1 60/137/1 15/37/1
f 6/14/1 63/145/1 70/161/1
f 69/159/1 15/37/1 6/14/1
f 61/141/1 66/152/1 68/157/1
f 6/15/2 15/36/2 18/43/2
f 24/57/3 11/26/3 14/35/3
f 27/64/4 9/22/4 18/44/4
f 22/52/5 6/16/5 9/23/5
f 11/27/6 1/1/6 3/8/6
f 1/2/5 22/52/5 27/63/5
f 3/9/4 27/64/4 21/50/4
f 72/166/1 63/145/1 22/53/1
f 11/28/1 24/58/1 68/157/1
f 11/28/1 68/157/1 74/172/1
f 72/166/1 22/53/1 1/3/1
f 11/28/1 74/172/1 72/166/1
f 24/58/1 39/93/1 76/177/1
f 37/88/1 15/37/1 59/135/1
f 31/73/7 42/98/7 48/108/7
f 21/50/4 18/44/4 34/81/4
f 21/51/8 31/74/8 39/92/8
f 15/38/9 37/86/9 34/80/9
f 37/87/10 46/105/10 43/99/10
f 76/177/1 39/93/1 48/109/1
f 78/183/1 46/104/1 37/88/1
f 34/81/4 43/100/4 42/97/4
f 82/193/1 79/185/1 48/109/1
f 56/127/1 46/104/1 78/183/1
f 56/127/1 78/183/1 81/190/1
f 82/193/1 48/109/1 57/130/1
f 56/127/1 81/190/1 82/193/1
f 56/128/3 57/131/3 50/112/3
f 43/100/4 53/120/4 50/113/4
f 42/98/6 50/114/6 57/132/6
f 46/105/2 56/129/2 53/121/2
f 17/41/7 69/160/7 70/162/7
f 68/158/5 66/153/5 19/45/5
f 19/45/5 12/29/5 74/173/5
f 8/20/45 70/163/45 64/148/45
f 12/30/2 4/10/2 72/167/2
f 63/146/3 72/168/3 4/11/3
f 4/11/3 26/62/3 64/149/3
f 28/65/2 19/46/2 66/154/2
f 30/70/6 60/138/6 69/160/6
f 41/96/10 33/78/10 76/178/10
f 28/66/9 61/142/9 76/179/9
f 59/136/46 60/139/46 30/71/46
f 30/71/8 36/85/8 75/175/8
f 45/103/7 78/184/7 75/176/7
f 54/122/5 51/115/5 82/194/5
f 51/116/2 41/96/2 79/186/2
f 54/123/6 81/191/6 78/184/6
usemtl 
f 5/12/12 118/238/12 2/4/12
f 7/17/13 98/216/13 5/12/13
f 10/24/14 100/218/14 7/17/14
f 13/31/15 95/213/15 10/24/15
f 13/31/16 91/209/16 102/220/16
f 16/39/17 93/211/17 91/209/17
f 20/47/18 89/206/18 93/211/18
f 23/54/19 88/205/19 89/206/19
f 25/59/20 90/208/20 88/205/20
f 29/68/21 92/210/21 90/207/21
f 32/75/22 94/212/22 92/210/22
f 35/82/23 96/214/23 94/212/23
f 38/89/24 101/219/24 96/214/24
f 40/94/25 99/217/25 101/219/25
f 44/101/26 97/215/26 99/217/26
f 47/106/27 119/240/27 97/215/27
f 49/110/28 104/222/28 119/240/28
f 52/117/29 108/227/29 104/222/29
f 55/125/30 106/224/30 108/226/30
f 58/133/31 116/236/31 106/224/31
f 65/150/32 116/236/32 62/143/32
f 67/155/33 110/229/33 65/150/33
f 71/164/34 114/234/34 67/155/34
f 73/169/35 112/231/35 71/164/35
f 77/181/36 111/230/36 73/169/36
f 80/187/37 113/233/37 77/180/37
f 83/195/38 115/235/38 80/187/38
f 84/197/39 109/228/39 83/195/39
f 85/199/40 117/237/40 84/197/40
f 86/201/41 105/223/41 85/199/41
f 87/203/42 107/225/42 86/201/42
f 2/5/43 103/221/43 87/203/43
f 38/90/1 13/32/1 84/198/1
f 5/12/12 98/216/12 118/238/12
f 7/17/13 100/218/13 98/216/13
f 10/24/14 95/213/14 100/218/14
f 13/31/15 102/220/15 95/213/15
f 13/31/47 16/39/47 91/209/47
f 16/39/17 20/47/17 93/211/17
f 20/47/18 23/54/18 89/206/18
f 23/54/19 25/59/19 88/205/19
f 25/59/20 29/67/20 90/208/20
f 29/68/21 32/75/21 92/210/21
f 32/75/22 35/82/22 94/212/22
f 35/82/48 38/89/48 96/214/48
f 38/89/24 40/94/24 101/219/24
f 40/94/25 44/101/25 99/217/25
f 44/101/26 47/106/26 97/215/26
f 47/106/27 49/110/27 119/240/27
f 49/110/28 52/117/28 104/222/28
f 52/117/29 55/124/29 108/227/29
f 55/125/30 58/133/30 106/224/30
f 58/133/31 62/143/31 116/236/31
f 65/150/49 110/229/49 116/236/49
f 67/155/33 114/234/33 110/229/33
f 71/164/34 112/231/34 114/234/34
f 73/169/35 111/230/35 112/231/35
f 77/181/36 113/232/36 111/230/36
f 80/187/37 115/235/37 113/233/37
f 83/195/38 109/228/38 115/235/38
f 84/197/50 117/237/50 109/228/50
f 85/199/40 105/223/40 117/237/40
f 86/201/41 107/225/41 105/223/41
f 87/203/42 103/221/42 107/225/42
f 2/5/43 118/239/43 103/221/43
f 84/198/1 83/196/1 80/188/1
f 80/188/1 77/182/1 73/170/1
f 73/170/1 71/165/1 67/156/1
f 67/156/1 65/151/1 62/144/1
f 62/144/1 58/134/1 55/126/1
f 55/126/1 52/118/1 49/111/1
f 49/111/1 47/107/1 44/102/1
f 44/102/1 40/95/1 38/90/1
f 38/90/1 35/83/1 32/76/1
f 32/76/1 29/69/1 25/60/1
f 25/60/1 23/55/1 20/48/1
f 20/48/1 16/40/1 13/32/1
f 13/32/1 10/25/1 7/18/1
f 7/18/1 5/13/1 2/6/1
f 2/6/1 87/204/1 86/202/1
f 86/202/1 85/200/1 84/198/1
f 84/198/1 80/188/1 73/170/1
f 73/170/1 67/156/1 62/144/1
f 62/144/1 55/126/1 49/111/1
f 49/111/1 44/102/1 38/90/1
f 38/90/1 32/76/1 25/60/1
f 25/60/1 20/48/1 13/32/1
f 13/32/1 7/18/1 2/6/1
f 2/6/1 86/202/1 84/198/1
f 84/198/1 73/170/1 62/144/1
f 62/144/1 49/111/1 38/90/1
f 38/90/1 25/60/1 13/32/1
f 13/32/1 2/6/1 84/198/1
f 84/198/1 62/144/1 38/90/1
